<?xml version="1.0" encoding="UTF-8" standalone="no"?>
<svg width="39px" height="34px" viewBox="0 0 39 34" version="1.1" xmlns="http://www.w3.org/2000/svg" xmlns:xlink="http://www.w3.org/1999/xlink" xmlns:sketch="http://www.bohemiancoding.com/sketch/ns">
    <!-- Generator: Sketch 3.3.2 (12043) - http://www.bohemiancoding.com/sketch -->
    <title>bio-selected@3x</title>
    <desc>Created with Sketch.</desc>
    <defs></defs>
    <g id="Guest-Account" stroke="none" stroke-width="1" fill="none" fill-rule="evenodd" sketch:type="MSPage">
        <g id="Guest-Account---About" sketch:type="MSArtboardGroup" transform="translate(-168.000000, -272.000000)">
            <g id="Tabs" sketch:type="MSLayerGroup" transform="translate(0.000000, 255.000000)">
                <g id="bio-selected" transform="translate(169.000000, 18.000000)" sketch:type="MSShapeGroup">
                    <path d="M21.4899828,10.24 L15.5100172,10.24 C15.0475172,10.24 14.6724138,9.86432 14.6724138,9.39968 L14.6724138,0.84032 C14.6724138,0.37632 15.0475172,0 15.5100172,0 L21.4899828,0 C21.9524828,0 22.3275862,0.37632 22.3275862,0.84032 L22.3275862,9.39968 C22.3275862,9.86432 21.9524828,10.24 21.4899828,10.24 L21.4899828,10.24 Z" id="Fill-592" fill="#FFFFFF"></path>
                    <path d="M21.4899828,10.24 L15.5100172,10.24 C15.0475172,10.24 14.6724138,9.86432 14.6724138,9.39968 L14.6724138,0.84032 C14.6724138,0.37632 15.0475172,0 15.5100172,0 L21.4899828,0 C21.9524828,0 22.3275862,0.37632 22.3275862,0.84032 L22.3275862,9.39968 C22.3275862,9.86432 21.9524828,10.24 21.4899828,10.24 L21.4899828,10.24 Z" id="Stroke-593" stroke="#58637A" stroke-linejoin="round"></path>
                    <path d="M22.3275862,6.4 L22.3275862,9.39968 C22.3275862,9.86432 21.9524828,10.24 21.4899828,10.24 L15.5100172,10.24 C15.0475172,10.24 14.6724138,9.86432 14.6724138,9.39968 L14.6724138,6.4 L2.34631034,6.4 C1.05067241,6.4 0,7.45408 0,8.75392 L0,29.64608 C0,30.94592 1.05067241,32 2.34631034,32 L34.6536897,32 C35.9493276,32 37,30.94592 37,29.64608 L37,8.75392 C37,7.45408 35.9493276,6.4 34.6536897,6.4 L22.3275862,6.4 L22.3275862,6.4 Z" id="Fill-600" fill="#FFFFFF"></path>
                    <path d="M22.3275862,6.4 L22.3275862,9.39968 C22.3275862,9.86432 21.9524828,10.24 21.4899828,10.24 L15.5100172,10.24 C15.0475172,10.24 14.6724138,9.86432 14.6724138,9.39968 L14.6724138,6.4 L2.34631034,6.4 C1.05067241,6.4 0,7.45408 0,8.75392 L0,29.64608 C0,30.94592 1.05067241,32 2.34631034,32 L34.6536897,32 C35.9493276,32 37,30.94592 37,29.64608 L37,8.75392 C37,7.45408 35.9493276,6.4 34.6536897,6.4 L22.3275862,6.4 L22.3275862,6.4 Z" id="Stroke-601" stroke="#58637A" stroke-linejoin="round"></path>
                    <path d="M20.4137931,3.84 C20.4137931,4.90048 19.5570517,5.76 18.5,5.76 C17.4429483,5.76 16.5862069,4.90048 16.5862069,3.84 C16.5862069,2.77952 17.4429483,1.92 18.5,1.92 C19.5570517,1.92 20.4137931,2.77952 20.4137931,3.84 L20.4137931,3.84 Z" id="Fill-602" fill="#E9EBEE"></path>
                    <path d="M20.4137931,3.84 C20.4137931,4.90048 19.5570517,5.76 18.5,5.76 C17.4429483,5.76 16.5862069,4.90048 16.5862069,3.84 C16.5862069,2.77952 17.4429483,1.92 18.5,1.92 C19.5570517,1.92 20.4137931,2.77952 20.4137931,3.84 L20.4137931,3.84 Z" id="Stroke-603" stroke="#58637A" stroke-linejoin="round"></path>
                    <path d="M14.1531379,24.41984 L11.7500517,23.18784 C11.5861034,23.104 11.4827586,22.93504 11.4827586,22.75008 L11.4827586,22.01216 C12.7158793,21.47904 13.4246207,20.44352 13.7697414,19.14816 C14.2896552,18.98688 14.6724138,18.50432 14.6724138,17.93088 L14.6724138,17.29088 C14.6724138,16.80064 14.3910862,16.3776 13.9847241,16.16256 C13.7040345,13.75552 12.1175,12.78208 9.56896552,12.78208 C9.44839655,12.78208 9.32974138,12.78656 9.21363793,12.79616 C8.34732759,12.86528 7.47144828,12.70144 6.75058621,12.2144 C6.45075862,12.01216 6.19877586,11.79648 6.02143103,11.57056 C5.94041379,11.46752 5.77837931,11.53344 5.79368966,11.664 C5.8192069,11.888 5.85684483,12.14912 5.91362069,12.43456 C6.12413793,13.49696 5.99846552,13.34144 5.58891379,14.34432 C5.36244828,14.89856 5.21636207,15.5136 5.14874138,16.16512 C4.74493103,16.3808 4.46551724,16.80256 4.46551724,17.29088 L4.46551724,17.93088 C4.46551724,18.50432 4.84827586,18.98688 5.36818966,19.14816 C5.71331034,20.44352 6.42205172,21.47904 7.65517241,22.01216 L7.65517241,22.74496 C7.65517241,22.93248 7.54927586,23.10336 7.3815,23.18656 L4.91844828,24.4032 C4.24606897,24.7712 3.82758621,25.4784 3.82758621,26.24704 L3.82758621,26.83328 L3.82758621,27.0944 C3.82758621,27.8176 6.39781034,28.17088 9.56896552,28.17088 C12.7401207,28.17088 15.3103448,27.8176 15.3103448,27.0944 L15.3103448,26.83328 L15.3103448,26.29824 C15.3103448,25.50272 14.8625172,24.77568 14.1531379,24.41984 L14.1531379,24.41984 Z" id="Fill-832" fill="#E9EBEE"></path>
                    <path d="M14.1531379,24.41984 L11.7500517,23.18784 C11.5861034,23.104 11.4827586,22.93504 11.4827586,22.75008 L11.4827586,22.01216 C12.7158793,21.47904 13.4246207,20.44352 13.7697414,19.14816 C14.2896552,18.98688 14.6724138,18.50432 14.6724138,17.93088 L14.6724138,17.29088 C14.6724138,16.80064 14.3910862,16.3776 13.9847241,16.16256 C13.7040345,13.75552 12.1175,12.78208 9.56896552,12.78208 C9.44839655,12.78208 9.32974138,12.78656 9.21363793,12.79616 C8.34732759,12.86528 7.47144828,12.70144 6.75058621,12.2144 C6.45075862,12.01216 6.19877586,11.79648 6.02143103,11.57056 C5.94041379,11.46752 5.77837931,11.53344 5.79368966,11.664 C5.8192069,11.888 5.85684483,12.14912 5.91362069,12.43456 C6.12413793,13.49696 5.99846552,13.34144 5.58891379,14.34432 C5.36244828,14.89856 5.21636207,15.5136 5.14874138,16.16512 C4.74493103,16.3808 4.46551724,16.80256 4.46551724,17.29088 L4.46551724,17.93088 C4.46551724,18.50432 4.84827586,18.98688 5.36818966,19.14816 C5.71331034,20.44352 6.42205172,21.47904 7.65517241,22.01216 L7.65517241,22.74496 C7.65517241,22.93248 7.54927586,23.10336 7.3815,23.18656 L4.91844828,24.4032 C4.24606897,24.7712 3.82758621,25.4784 3.82758621,26.24704 L3.82758621,26.83328 L3.82758621,27.0944 C3.82758621,27.8176 6.39781034,28.17088 9.56896552,28.17088 C12.7401207,28.17088 15.3103448,27.8176 15.3103448,27.0944 L15.3103448,26.83328 L15.3103448,26.29824 C15.3103448,25.50272 14.8625172,24.77568 14.1531379,24.41984 L14.1531379,24.41984 Z" id="Stroke-833" stroke="#58637A" stroke-linecap="round" stroke-linejoin="round"></path>
                    <path d="M19.137931,14.73088 L25.5172414,14.73088 M19.137931,25.61088 L19.7758621,25.61088 M22.3275862,25.61088 L23.6034483,25.61088 M26.1551724,25.61088 L26.7931034,25.61088 M29.3448276,25.61088 L30.6206897,25.61088 M19.137931,18.57088 L33.1724138,18.57088 M19.137931,22.41088 L33.1724138,22.41088" id="Stroke-834" stroke="#58637A" stroke-linecap="round" stroke-linejoin="round"></path>
                </g>
            </g>
        </g>
    </g>
</svg>