<?xml version="1.0" encoding="UTF-8" standalone="no"?>
<svg width="28px" height="36px" viewBox="0 0 28 36" version="1.1" xmlns="http://www.w3.org/2000/svg" xmlns:xlink="http://www.w3.org/1999/xlink" xmlns:sketch="http://www.bohemiancoding.com/sketch/ns">
    <!-- Generator: Sketch 3.3.2 (12043) - http://www.bohemiancoding.com/sketch -->
    <title>calculator@3x</title>
    <desc>Created with Sketch.</desc>
    <defs></defs>
    <g id="Guest-Account" stroke="none" stroke-width="1" fill="none" fill-rule="evenodd" sketch:type="MSPage">
        <g id="Guest-Account---About" sketch:type="MSArtboardGroup" transform="translate(-1135.000000, -275.000000)">
            <g id="Tabs" sketch:type="MSLayerGroup" transform="translate(0.000000, 255.000000)">
                <g id="calculator" transform="translate(1136.000000, 21.000000)" sketch:type="MSShapeGroup">
                    <path d="M24.8941333,34 L1.10586667,34 C0.495155556,34 0,33.4976207 0,32.878 L0,1.122 C0,0.50237931 0.495155556,0 1.10586667,0 L24.8941333,0 C25.5048444,0 26,0.50237931 26,1.122 L26,32.878 C26,33.4976207 25.5048444,34 24.8941333,34 L24.8941333,34 Z" id="Fill-128" fill="#FFFFFF"></path>
                    <path d="M24.8941333,34 L1.10586667,34 C0.495155556,34 0,33.4976207 0,32.878 L0,1.122 C0,0.50237931 0.495155556,0 1.10586667,0 L24.8941333,0 C25.5048444,0 26,0.50237931 26,1.122 L26,32.878 C26,33.4976207 25.5048444,34 24.8941333,34 L24.8941333,34 Z" id="Stroke-129" stroke="#4198C5" stroke-linejoin="round"></path>
                    <path d="M2.88888889,25.7931034 L8.08888889,25.7931034 L8.08888889,31.0689655 L2.88888889,31.0689655 L2.88888889,25.7931034 Z" id="Fill-130" fill="#DAEBF4"></path>
                    <path d="M2.88888889,25.7931034 L8.08888889,25.7931034 L8.08888889,31.0689655 L2.88888889,31.0689655 L2.88888889,25.7931034 Z" id="Stroke-131" stroke="#4198C5" stroke-linejoin="round"></path>
                    <path d="M10.4,25.7931034 L15.6,25.7931034 L15.6,31.0689655 L10.4,31.0689655 L10.4,25.7931034 Z" id="Fill-132" fill="#DAEBF4"></path>
                    <path d="M10.4,25.7931034 L15.6,25.7931034 L15.6,31.0689655 L10.4,31.0689655 L10.4,25.7931034 Z" id="Stroke-133" stroke="#4198C5" stroke-linejoin="round"></path>
                    <path d="M17.9111111,18.1724138 L23.1111111,18.1724138 L23.1111111,31.0689655 L17.9111111,31.0689655 L17.9111111,18.1724138 Z" id="Fill-134" fill="#DAEBF4"></path>
                    <path d="M17.9111111,18.1724138 L23.1111111,18.1724138 L23.1111111,31.0689655 L17.9111111,31.0689655 L17.9111111,18.1724138 Z" id="Stroke-135" stroke="#4198C5" stroke-linejoin="round"></path>
                    <path d="M2.88888889,18.1724138 L8.08888889,18.1724138 L8.08888889,23.4482759 L2.88888889,23.4482759 L2.88888889,18.1724138 Z" id="Fill-136" fill="#DAEBF4"></path>
                    <path d="M2.88888889,18.1724138 L8.08888889,18.1724138 L8.08888889,23.4482759 L2.88888889,23.4482759 L2.88888889,18.1724138 Z" id="Stroke-137" stroke="#4198C5" stroke-linejoin="round"></path>
                    <path d="M10.4,18.1724138 L15.6,18.1724138 L15.6,23.4482759 L10.4,23.4482759 L10.4,18.1724138 Z" id="Fill-138" fill="#DAEBF4"></path>
                    <path d="M10.4,18.1724138 L15.6,18.1724138 L15.6,23.4482759 L10.4,23.4482759 L10.4,18.1724138 Z" id="Stroke-139" stroke="#4198C5" stroke-linejoin="round"></path>
                    <path d="M2.88888889,10.5517241 L8.08888889,10.5517241 L8.08888889,15.8275862 L2.88888889,15.8275862 L2.88888889,10.5517241 Z" id="Fill-140" fill="#DAEBF4"></path>
                    <path d="M2.88888889,10.5517241 L8.08888889,10.5517241 L8.08888889,15.8275862 L2.88888889,15.8275862 L2.88888889,10.5517241 Z" id="Stroke-141" stroke="#4198C5" stroke-linejoin="round"></path>
                    <path d="M10.4,10.5517241 L15.6,10.5517241 L15.6,15.8275862 L10.4,15.8275862 L10.4,10.5517241 Z" id="Fill-142" fill="#DAEBF4"></path>
                    <path d="M10.4,10.5517241 L15.6,10.5517241 L15.6,15.8275862 L10.4,15.8275862 L10.4,10.5517241 Z" id="Stroke-143" stroke="#4198C5" stroke-linejoin="round"></path>
                    <path d="M17.9111111,10.5517241 L23.1111111,10.5517241 L23.1111111,15.8275862 L17.9111111,15.8275862 L17.9111111,10.5517241 Z" id="Fill-144" fill="#DAEBF4"></path>
                    <path d="M17.9111111,10.5517241 L23.1111111,10.5517241 L23.1111111,15.8275862 L17.9111111,15.8275862 L17.9111111,10.5517241 Z" id="Stroke-145" stroke="#4198C5" stroke-linejoin="round"></path>
                    <path d="M2.88888889,2.93103448 L23.1111111,2.93103448 L23.1111111,7.62068966 L2.88888889,7.62068966 L2.88888889,2.93103448 Z" id="Fill-146" fill="#DAEBF4"></path>
                    <path d="M2.88888889,2.93103448 L23.1111111,2.93103448 L23.1111111,7.62068966 L2.88888889,7.62068966 L2.88888889,2.93103448 Z" id="Stroke-147" stroke="#4198C5" stroke-linejoin="round"></path>
                </g>
            </g>
        </g>
    </g>
</svg>