<?xml version="1.0" encoding="UTF-8" standalone="no"?>
<svg width="60px" height="60px" viewBox="0 0 60 60" version="1.1" xmlns="http://www.w3.org/2000/svg" xmlns:xlink="http://www.w3.org/1999/xlink" xmlns:sketch="http://www.bohemiancoding.com/sketch/ns">
    <!-- Generator: Sketch 3.3.2 (12043) - http://www.bohemiancoding.com/sketch -->
    <title>clarity</title>
    <desc>Created with Sketch.</desc>
    <defs></defs>
    <g id="Anonymous" stroke="none" stroke-width="1" fill="none" fill-rule="evenodd" sketch:type="MSPage">
        <g id="About" sketch:type="MSArtboardGroup" transform="translate(-122.000000, -1182.000000)">
            <g id="3-column" sketch:type="MSLayerGroup" transform="translate(0.000000, 518.000000)">
                <g id="Premise-Copy" transform="translate(81.000000, 623.000000)" sketch:type="MSShapeGroup">
                    <g id="clarity" transform="translate(42.000000, 42.000000)">
                        <path d="M0,0 L58,0 L58,58 L0,58 L0,0 Z" id="Fill-59" fill="#FFFFFF"></path>
                        <path d="M0,0 L58,0 L58,58 L0,58 L0,0 Z" id="Stroke-60" stroke="#4198C5" stroke-width="2"></path>
                        <path d="M0,0 L58,0 L58,12 L0,12 L0,0 Z" id="Fill-61" fill="#DAEBF4"></path>
                        <path d="M0,0 L58,0 L58,12 L0,12 L0,0 Z" id="Stroke-62" stroke="#4198C5" stroke-width="2"></path>
                        <path d="M5,17 L53,17 L53,29 L5,29 L5,17 Z" id="Fill-1046" fill="#FFFFFF"></path>
                        <path d="M5,17 L53,17 L53,29 L5,29 L5,17 Z" id="Stroke-1047" stroke="#4198C5" stroke-width="2"></path>
                        <path d="M9,6 C9,7.657 7.657,9 6,9 C4.343,9 3,7.657 3,6 C3,4.343 4.343,3 6,3 C7.657,3 9,4.343 9,6 L9,6 Z" id="Fill-1048" fill="#FFFFFF"></path>
                        <path d="M9,6 C9,7.657 7.657,9 6,9 C4.343,9 3,7.657 3,6 C3,4.343 4.343,3 6,3 C7.657,3 9,4.343 9,6 L9,6 Z" id="Stroke-1049" stroke="#4198C5" stroke-width="2"></path>
                        <path d="M18,6 C18,7.657 16.657,9 15,9 C13.343,9 12,7.657 12,6 C12,4.343 13.343,3 15,3 C16.657,3 18,4.343 18,6 L18,6 Z" id="Fill-1050" fill="#FFFFFF"></path>
                        <path d="M18,6 C18,7.657 16.657,9 15,9 C13.343,9 12,7.657 12,6 C12,4.343 13.343,3 15,3 C16.657,3 18,4.343 18,6 L18,6 Z" id="Stroke-1051" stroke="#4198C5" stroke-width="2"></path>
                        <path d="M27,6 C27,7.657 25.657,9 24,9 C22.343,9 21,7.657 21,6 C21,4.343 22.343,3 24,3 C25.657,3 27,4.343 27,6 L27,6 Z" id="Fill-1052" fill="#FFFFFF"></path>
                        <path d="M27,6 C27,7.657 25.657,9 24,9 C22.343,9 21,7.657 21,6 C21,4.343 22.343,3 24,3 C25.657,3 27,4.343 27,6 L27,6 Z" id="Stroke-1053" stroke="#4198C5" stroke-width="2"></path>
                        <path d="M31,34 L53,34 L53,44 L31,44 L31,34 Z" id="Fill-1054" fill="#DAEBF4"></path>
                        <path d="M31,34 L53,34 L53,44 L31,44 L31,34 Z" id="Stroke-1055" stroke="#4198C5" stroke-width="2"></path>
                        <path d="M31,48 L53,48 M31,52 L53,52" id="Stroke-1056" stroke="#4198C5" stroke-width="2" stroke-linecap="round"></path>
                        <path d="M5,34 L27,34 L27,44 L5,44 L5,34 Z" id="Fill-1057" fill="#DAEBF4"></path>
                        <path d="M5,34 L27,34 L27,44 L5,44 L5,34 Z" id="Stroke-1058" stroke="#4198C5" stroke-width="2"></path>
                        <path d="M5,48 L27,48 M5,52 L27,52" id="Stroke-1059" stroke="#4198C5" stroke-width="2" stroke-linecap="round"></path>
                        <path d="M50,20 C49.448,20 49,19.552 49,19 C49,18.448 49.448,18 50,18 C50.552,18 51,18.448 51,19 C51,19.552 50.552,20 50,20" id="Fill-1060" fill="#4198C5"></path>
                        <path d="M50,26 C49.448,26 49,25.552 49,25 C49,24.448 49.448,24 50,24 C50.552,24 51,24.448 51,25 C51,25.552 50.552,26 50,26" id="Fill-1061" fill="#4198C5"></path>
                        <path d="M47,23 C46.448,23 46,22.552 46,22 C46,21.448 46.448,21 47,21 C47.552,21 48,21.448 48,22 C48,22.552 47.552,23 47,23" id="Fill-1062" fill="#4198C5"></path>
                        <path d="M44,20 C43.448,20 43,19.552 43,19 C43,18.448 43.448,18 44,18 C44.552,18 45,18.448 45,19 C45,19.552 44.552,20 44,20" id="Fill-1063" fill="#4198C5"></path>
                        <path d="M44,26 C43.448,26 43,25.552 43,25 C43,24.448 43.448,24 44,24 C44.552,24 45,24.448 45,25 C45,25.552 44.552,26 44,26" id="Fill-1064" fill="#4198C5"></path>
                        <path d="M47,29 C46.448,29 46,28.552 46,28 C46,27.448 46.448,27 47,27 C47.552,27 48,27.448 48,28 C48,28.552 47.552,29 47,29" id="Fill-1065" fill="#4198C5"></path>
                        <path d="M41,23 C40.448,23 40,22.552 40,22 C40,21.448 40.448,21 41,21 C41.552,21 42,21.448 42,22 C42,22.552 41.552,23 41,23" id="Fill-1066" fill="#4198C5"></path>
                        <path d="M38,20 C37.448,20 37,19.552 37,19 C37,18.448 37.448,18 38,18 C38.552,18 39,18.448 39,19 C39,19.552 38.552,20 38,20" id="Fill-1067" fill="#4198C5"></path>
                        <path d="M38,26 C37.448,26 37,25.552 37,25 C37,24.448 37.448,24 38,24 C38.552,24 39,24.448 39,25 C39,25.552 38.552,26 38,26" id="Fill-1068" fill="#4198C5"></path>
                        <path d="M41,29 C40.448,29 40,28.552 40,28 C40,27.448 40.448,27 41,27 C41.552,27 42,27.448 42,28 C42,28.552 41.552,29 41,29" id="Fill-1069" fill="#4198C5"></path>
                        <path d="M35,23 C34.448,23 34,22.552 34,22 C34,21.448 34.448,21 35,21 C35.552,21 36,21.448 36,22 C36,22.552 35.552,23 35,23" id="Fill-1070" fill="#4198C5"></path>
                        <path d="M32,20 C31.448,20 31,19.552 31,19 C31,18.448 31.448,18 32,18 C32.552,18 33,18.448 33,19 C33,19.552 32.552,20 32,20" id="Fill-1071" fill="#4198C5"></path>
                        <path d="M32,26 C31.448,26 31,25.552 31,25 C31,24.448 31.448,24 32,24 C32.552,24 33,24.448 33,25 C33,25.552 32.552,26 32,26" id="Fill-1072" fill="#4198C5"></path>
                        <path d="M35,29 C34.448,29 34,28.552 34,28 C34,27.448 34.448,27 35,27 C35.552,27 36,27.448 36,28 C36,28.552 35.552,29 35,29" id="Fill-1073" fill="#4198C5"></path>
                        <path d="M29,23 C28.448,23 28,22.552 28,22 C28,21.448 28.448,21 29,21 C29.552,21 30,21.448 30,22 C30,22.552 29.552,23 29,23" id="Fill-1074" fill="#4198C5"></path>
                        <path d="M26,20 C25.448,20 25,19.552 25,19 C25,18.448 25.448,18 26,18 C26.552,18 27,18.448 27,19 C27,19.552 26.552,20 26,20" id="Fill-1075" fill="#4198C5"></path>
                        <path d="M26,26 C25.448,26 25,25.552 25,25 C25,24.448 25.448,24 26,24 C26.552,24 27,24.448 27,25 C27,25.552 26.552,26 26,26" id="Fill-1076" fill="#4198C5"></path>
                        <path d="M29,29 C28.448,29 28,28.552 28,28 C28,27.448 28.448,27 29,27 C29.552,27 30,27.448 30,28 C30,28.552 29.552,29 29,29" id="Fill-1077" fill="#4198C5"></path>
                        <path d="M23,23 C22.448,23 22,22.552 22,22 C22,21.448 22.448,21 23,21 C23.552,21 24,21.448 24,22 C24,22.552 23.552,23 23,23" id="Fill-1078" fill="#4198C5"></path>
                        <path d="M20,20 C19.448,20 19,19.552 19,19 C19,18.448 19.448,18 20,18 C20.552,18 21,18.448 21,19 C21,19.552 20.552,20 20,20" id="Fill-1079" fill="#4198C5"></path>
                        <path d="M20,26 C19.448,26 19,25.552 19,25 C19,24.448 19.448,24 20,24 C20.552,24 21,24.448 21,25 C21,25.552 20.552,26 20,26" id="Fill-1080" fill="#4198C5"></path>
                        <path d="M23,29 C22.448,29 22,28.552 22,28 C22,27.448 22.448,27 23,27 C23.552,27 24,27.448 24,28 C24,28.552 23.552,29 23,29" id="Fill-1081" fill="#4198C5"></path>
                        <path d="M17,23 C16.448,23 16,22.552 16,22 C16,21.448 16.448,21 17,21 C17.552,21 18,21.448 18,22 C18,22.552 17.552,23 17,23" id="Fill-1082" fill="#4198C5"></path>
                        <path d="M14,20 C13.448,20 13,19.552 13,19 C13,18.448 13.448,18 14,18 C14.552,18 15,18.448 15,19 C15,19.552 14.552,20 14,20" id="Fill-1083" fill="#4198C5"></path>
                        <path d="M14,26 C13.448,26 13,25.552 13,25 C13,24.448 13.448,24 14,24 C14.552,24 15,24.448 15,25 C15,25.552 14.552,26 14,26" id="Fill-1084" fill="#4198C5"></path>
                        <path d="M17,29 C16.448,29 16,28.552 16,28 C16,27.448 16.448,27 17,27 C17.552,27 18,27.448 18,28 C18,28.552 17.552,29 17,29" id="Fill-1085" fill="#4198C5"></path>
                        <path d="M11,23 C10.448,23 10,22.552 10,22 C10,21.448 10.448,21 11,21 C11.552,21 12,21.448 12,22 C12,22.552 11.552,23 11,23" id="Fill-1086" fill="#4198C5"></path>
                        <path d="M8,20 C7.448,20 7,19.552 7,19 C7,18.448 7.448,18 8,18 C8.552,18 9,18.448 9,19 C9,19.552 8.552,20 8,20" id="Fill-1087" fill="#4198C5"></path>
                        <path d="M8,26 C7.448,26 7,25.552 7,25 C7,24.448 7.448,24 8,24 C8.552,24 9,24.448 9,25 C9,25.552 8.552,26 8,26" id="Fill-1088" fill="#4198C5"></path>
                        <path d="M11,29 C10.448,29 10,28.552 10,28 C10,27.448 10.448,27 11,27 C11.552,27 12,27.448 12,28 C12,28.552 11.552,29 11,29" id="Fill-1089" fill="#4198C5"></path>
                    </g>
                </g>
            </g>
        </g>
    </g>
</svg>