<?xml version="1.0" encoding="UTF-8" standalone="no"?>
<svg width="20px" height="20px" viewBox="0 0 20 20" version="1.1" xmlns="http://www.w3.org/2000/svg" xmlns:xlink="http://www.w3.org/1999/xlink" xmlns:sketch="http://www.bohemiancoding.com/sketch/ns">
    <!-- Generator: Sketch 3.3.2 (12043) - http://www.bohemiancoding.com/sketch -->
    <title>comments field</title>
    <desc>Created with Sketch.</desc>
    <defs></defs>
    <g id="Anonymous" stroke="none" stroke-width="1" fill="none" fill-rule="evenodd" sketch:type="MSPage">
        <g id="Contact" sketch:type="MSArtboardGroup" transform="translate(-808.000000, -767.000000)" fill="#CAD3E6">
            <g id="Form" sketch:type="MSLayerGroup" transform="translate(706.000000, 229.000000)">
                <g id="text-field-copy-3" transform="translate(82.000000, 508.000000)" sketch:type="MSShapeGroup">
                    <g id="comments-field" transform="translate(20.000000, 30.000000)">
                        <path d="M14,0.32295082 L6,0.32295082 C2.69166667,0.32295082 0,2.9704918 0,6.22459016 L0,10.8147541 C0,13.9590164 2.51266667,16.5363934 5.66666667,16.707541 L5.66666667,19.4429508 C5.66666667,19.7501639 5.92133333,20 6.23433333,20 C6.38366667,20 6.52533333,19.9419672 6.63266667,19.8363934 L7.25766667,19.2213115 C8.90033333,17.6059016 11.084,16.7163934 13.4063333,16.7163934 L14,16.7163934 C17.3083333,16.7163934 20,14.0688525 20,10.8147541 L20,6.22459016 C20,2.9704918 17.3083333,0.32295082 14,0.32295082 L14,0.32295082 Z M5.66666667,5.90163934 L10.3333333,5.90163934 C10.5173333,5.90163934 10.6666667,6.04852459 10.6666667,6.2295082 C10.6666667,6.4104918 10.5173333,6.55737705 10.3333333,6.55737705 L5.66666667,6.55737705 C5.48266667,6.55737705 5.33333333,6.4104918 5.33333333,6.2295082 C5.33333333,6.04852459 5.48266667,5.90163934 5.66666667,5.90163934 L5.66666667,5.90163934 Z M14.6666667,11.8032787 L5.66666667,11.8032787 C5.48266667,11.8032787 5.33333333,11.6563934 5.33333333,11.4754098 C5.33333333,11.2944262 5.48266667,11.147541 5.66666667,11.147541 L14.6666667,11.147541 C14.8506667,11.147541 15,11.2944262 15,11.4754098 C15,11.6563934 14.8506667,11.8032787 14.6666667,11.8032787 L14.6666667,11.8032787 Z M14.6666667,9.18032787 L5.66666667,9.18032787 C5.48266667,9.18032787 5.33333333,9.03344262 5.33333333,8.85245902 C5.33333333,8.67147541 5.48266667,8.52459016 5.66666667,8.52459016 L14.6666667,8.52459016 C14.8506667,8.52459016 15,8.67147541 15,8.85245902 C15,9.03344262 14.8506667,9.18032787 14.6666667,9.18032787 L14.6666667,9.18032787 Z" id="Fill-139"></path>
                    </g>
                </g>
            </g>
        </g>
    </g>
</svg>