<?xml version="1.0" encoding="UTF-8" standalone="no"?>
<svg width="46px" height="60px" viewBox="0 0 46 60" version="1.1" xmlns="http://www.w3.org/2000/svg" xmlns:xlink="http://www.w3.org/1999/xlink" xmlns:sketch="http://www.bohemiancoding.com/sketch/ns">
    <!-- Generator: Sketch 3.3.2 (12043) - http://www.bohemiancoding.com/sketch -->
    <title>confidence</title>
    <desc>Created with Sketch.</desc>
    <defs></defs>
    <g id="Anonymous" stroke="none" stroke-width="1" fill="none" fill-rule="evenodd" sketch:type="MSPage">
        <g id="About" sketch:type="MSArtboardGroup" transform="translate(-568.000000, -1180.000000)">
            <g id="3-column" sketch:type="MSLayerGroup" transform="translate(0.000000, 518.000000)">
                <g id="Confidence" transform="translate(528.000000, 623.000000)" sketch:type="MSShapeGroup">
                    <g id="confidence" transform="translate(41.000000, 40.000000)">
                        <path d="M22,0 C22,0 15.333,8 0,8 L0,27.085 C0,37.051 4.328,46.662 12.164,52.82 C14.938,55 18.208,56.875 22,58 C25.792,56.875 29.063,55 31.836,52.82 C39.672,46.662 44,37.051 44,27.085 L44,8 C28.667,8 22,0 22,0 L22,0 Z" id="Fill-45" fill="#FFFFFF"></path>
                        <path d="M22,0 C22,0 15.333,8 0,8 L0,27.085 C0,37.051 4.328,46.662 12.164,52.82 C14.938,55 18.208,56.875 22,58 C25.792,56.875 29.063,55 31.836,52.82 C39.672,46.662 44,37.051 44,27.085 L44,8 C28.667,8 22,0 22,0 L22,0 Z" id="Stroke-46" stroke="#4198C5" stroke-width="2" stroke-linejoin="round"></path>
                        <path d="M22,51.661 C19.877,50.828 17.822,49.636 15.872,48.103 C9.69,43.245 6,35.388 6,27.085 L6,13.628 C13.391,12.686 18.639,10.114 22,7.831 C25.361,10.114 30.609,12.686 38,13.628 L38,27.085 C38,35.388 34.31,43.245 28.129,48.103 C26.178,49.636 24.123,50.828 22,51.661 L22,51.661 Z" id="Fill-47" fill="#DAEBF4"></path>
                        <path d="M22,51.661 C19.877,50.828 17.822,49.636 15.872,48.103 C9.69,43.245 6,35.388 6,27.085 L6,13.628 C13.391,12.686 18.639,10.114 22,7.831 C25.361,10.114 30.609,12.686 38,13.628 L38,27.085 C38,35.388 34.31,43.245 28.129,48.103 C26.178,49.636 24.123,50.828 22,51.661 L22,51.661 Z" id="Stroke-48" stroke="#4198C5" stroke-width="2" stroke-linejoin="round"></path>
                        <path d="M34,21 L20,37 L12,29" id="Stroke-51" stroke="#4198C5" stroke-width="2" stroke-linecap="round" stroke-linejoin="round"></path>
                    </g>
                </g>
            </g>
        </g>
    </g>
</svg>