<?xml version="1.0" encoding="UTF-8" standalone="no"?>
<svg width="27px" height="27px" viewBox="0 0 27 27" version="1.1" xmlns="http://www.w3.org/2000/svg" xmlns:xlink="http://www.w3.org/1999/xlink" xmlns:sketch="http://www.bohemiancoding.com/sketch/ns">
    <!-- Generator: Sketch 3.3.2 (12043) - http://www.bohemiancoding.com/sketch -->
    <title>cross@3x</title>
    <desc>Created with Sketch.</desc>
    <defs></defs>
    <g id="Guest-Account" stroke="none" stroke-width="1" fill="none" fill-rule="evenodd" sketch:type="MSPage">
        <g id="Guest-Account---Trade-History" sketch:type="MSArtboardGroup" transform="translate(-1090.000000, -965.000000)">
            <g id="checks" sketch:type="MSLayerGroup" transform="translate(504.000000, 966.000000)">
                <g id="cross" transform="translate(587.000000, 0.000000)" sketch:type="MSShapeGroup">
                    <path d="M24.5098039,12.254902 C24.5098039,19.0230392 19.0230392,24.5098039 12.254902,24.5098039 C5.48676471,24.5098039 0,19.0230392 0,12.254902 C0,5.48676471 5.48676471,0 12.254902,0 C19.0230392,0 24.5098039,5.48676471 24.5098039,12.254902 L24.5098039,12.254902 Z" id="Fill-359" fill="#FFFFFF"></path>
                    <path d="M24.5098039,12.254902 C24.5098039,19.0230392 19.0230392,24.5098039 12.254902,24.5098039 C5.48676471,24.5098039 0,19.0230392 0,12.254902 C0,5.48676471 5.48676471,0 12.254902,0 C19.0230392,0 24.5098039,5.48676471 24.5098039,12.254902 L24.5098039,12.254902 Z" id="Stroke-360" stroke="#CAD3E6" stroke-width="2" stroke-linejoin="round"></path>
                    <path d="M7.84313725,16.6666667 L16.6666667,7.84313725" id="Path" stroke="#CAD3E6" stroke-width="2" stroke-linecap="round" stroke-linejoin="round"></path>
                    <path d="M7.84313725,7.84313725 L16.6666667,16.6666667" id="Path" stroke="#CAD3E6" stroke-width="2" stroke-linecap="round" stroke-linejoin="round"></path>
                </g>
            </g>
        </g>
    </g>
</svg>