<?xml version="1.0" encoding="UTF-8" standalone="no"?>
<svg width="61px" height="61px" viewBox="0 0 61 61" version="1.1" xmlns="http://www.w3.org/2000/svg" xmlns:xlink="http://www.w3.org/1999/xlink" xmlns:sketch="http://www.bohemiancoding.com/sketch/ns">
    <!-- Generator: Sketch 3.3.2 (12043) - http://www.bohemiancoding.com/sketch -->
    <title>diversification</title>
    <desc>Created with Sketch.</desc>
    <defs></defs>
    <g id="Anonymous" stroke="none" stroke-width="1" fill="none" fill-rule="evenodd" sketch:type="MSPage">
        <g id="Contact" sketch:type="MSArtboardGroup" transform="translate(-1008.000000, -1277.000000)">
            <g id="3-column" sketch:type="MSLayerGroup" transform="translate(0.000000, 1167.000000)">
                <g id="Search" transform="translate(976.000000, 71.000000)" sketch:type="MSShapeGroup">
                    <g id="diversification" transform="translate(33.000000, 40.000000)">
                        <path d="M58.8981961,16.7236078 L29.449098,33.5490196 L0,16.7236078 L29.449098,0 L58.8981961,16.7236078 L58.8981961,16.7236078 Z" id="Fill-104" fill="#DAEBF4"></path>
                        <path d="M58.8981961,16.7236078 L29.449098,33.5490196 L0,16.7236078 L29.449098,0 L58.8981961,16.7236078 L58.8981961,16.7236078 Z" id="Stroke-105" stroke="#4198C5" stroke-width="2" stroke-linecap="round" stroke-linejoin="round"></path>
                        <path d="M29.449098,33.5490196 L11.1706667,23.1060196 L0,29.449098 L29.449098,46.2745098 L58.8981961,29.449098 L47.7275294,23.1060196 L29.449098,33.5490196 L29.449098,33.5490196 Z" id="Fill-106" fill="#FFFFFF"></path>
                        <path d="M29.449098,33.5490196 L11.1706667,23.1060196 L0,29.449098 L29.449098,46.2745098 L58.8981961,29.449098 L47.7275294,23.1060196 L29.449098,33.5490196 L29.449098,33.5490196 Z" id="Stroke-107" stroke="#4198C5" stroke-width="2" stroke-linecap="round" stroke-linejoin="round"></path>
                        <path d="M29.449098,46.2745098 L11.1706667,35.8315098 L0,42.1745882 L29.449098,59 L58.8981961,42.1745882 L47.7275294,35.8315098 L29.449098,46.2745098 L29.449098,46.2745098 Z" id="Fill-108" fill="#FFFFFF"></path>
                        <path d="M29.449098,46.2745098 L11.1706667,35.8315098 L0,42.1745882 L29.449098,59 L58.8981961,42.1745882 L47.7275294,35.8315098 L29.449098,46.2745098 L29.449098,46.2745098 Z" id="Stroke-109" stroke="#4198C5" stroke-width="2" stroke-linecap="round" stroke-linejoin="round"></path>
                        <path d="M47.4313725,24.2941176 C47.4313725,24.9327059 46.913098,25.4509804 46.2745098,25.4509804 C45.6359216,25.4509804 45.1176471,24.9327059 45.1176471,24.2941176 C45.1176471,23.6555294 45.6359216,23.1372549 46.2745098,23.1372549 C46.913098,23.1372549 47.4313725,23.6555294 47.4313725,24.2941176" id="Fill-192" fill="#4198C5"></path>
                        <path d="M50.9019608,27.7647059 C50.9019608,28.4032941 50.3836863,28.9215686 49.745098,28.9215686 C49.1065098,28.9215686 48.5882353,28.4032941 48.5882353,27.7647059 C48.5882353,27.1261176 49.1065098,26.6078431 49.745098,26.6078431 C50.3836863,26.6078431 50.9019608,27.1261176 50.9019608,27.7647059" id="Fill-193" fill="#4198C5"></path>
                        <path d="M12.7254902,24.2941176 C12.7254902,24.9327059 12.2072157,25.4509804 11.5686275,25.4509804 C10.9300392,25.4509804 10.4117647,24.9327059 10.4117647,24.2941176 C10.4117647,23.6555294 10.9300392,23.1372549 11.5686275,23.1372549 C12.2072157,23.1372549 12.7254902,23.6555294 12.7254902,24.2941176" id="Fill-239" fill="#4198C5"></path>
                        <path d="M43.9607843,27.7647059 C43.9607843,28.4032941 43.4425098,28.9215686 42.8039216,28.9215686 C42.1653333,28.9215686 41.6470588,28.4032941 41.6470588,27.7647059 C41.6470588,27.1261176 42.1653333,26.6078431 42.8039216,26.6078431 C43.4425098,26.6078431 43.9607843,27.1261176 43.9607843,27.7647059" id="Fill-240" fill="#4198C5"></path>
                        <path d="M9.25490196,27.7647059 C9.25490196,28.4032941 8.73662745,28.9215686 8.09803922,28.9215686 C7.45945098,28.9215686 6.94117647,28.4032941 6.94117647,27.7647059 C6.94117647,27.1261176 7.45945098,26.6078431 8.09803922,26.6078431 C8.73662745,26.6078431 9.25490196,27.1261176 9.25490196,27.7647059" id="Fill-241" fill="#4198C5"></path>
                        <path d="M16.1960784,27.7647059 C16.1960784,28.4032941 15.6778039,28.9215686 15.0392157,28.9215686 C14.4006275,28.9215686 13.8823529,28.4032941 13.8823529,27.7647059 C13.8823529,27.1261176 14.4006275,26.6078431 15.0392157,26.6078431 C15.6778039,26.6078431 16.1960784,27.1261176 16.1960784,27.7647059" id="Fill-242" fill="#4198C5"></path>
                        <path d="M5.78431373,31.2352941 C5.78431373,31.8738824 5.26603922,32.3921569 4.62745098,32.3921569 C3.98886275,32.3921569 3.47058824,31.8738824 3.47058824,31.2352941 C3.47058824,30.5967059 3.98886275,30.0784314 4.62745098,30.0784314 C5.26603922,30.0784314 5.78431373,30.5967059 5.78431373,31.2352941" id="Fill-243" fill="#4198C5"></path>
                        <path d="M12.7254902,31.2352941 C12.7254902,31.8738824 12.2072157,32.3921569 11.5686275,32.3921569 C10.9300392,32.3921569 10.4117647,31.8738824 10.4117647,31.2352941 C10.4117647,30.5967059 10.9300392,30.0784314 11.5686275,30.0784314 C12.2072157,30.0784314 12.7254902,30.5967059 12.7254902,31.2352941" id="Fill-244" fill="#4198C5"></path>
                        <path d="M19.6666667,31.2352941 C19.6666667,31.8738824 19.1483922,32.3921569 18.5098039,32.3921569 C17.8712157,32.3921569 17.3529412,31.8738824 17.3529412,31.2352941 C17.3529412,30.5967059 17.8712157,30.0784314 18.5098039,30.0784314 C19.1483922,30.0784314 19.6666667,30.5967059 19.6666667,31.2352941" id="Fill-245" fill="#4198C5"></path>
                        <path d="M19.6666667,38.1764706 C19.6666667,38.8150588 19.1483922,39.3333333 18.5098039,39.3333333 C17.8712157,39.3333333 17.3529412,38.8150588 17.3529412,38.1764706 C17.3529412,37.5378824 17.8712157,37.0196078 18.5098039,37.0196078 C19.1483922,37.0196078 19.6666667,37.5378824 19.6666667,38.1764706" id="Fill-246" fill="#4198C5"></path>
                        <path d="M16.1960784,34.7058824 C16.1960784,35.3444706 15.6778039,35.8627451 15.0392157,35.8627451 C14.4006275,35.8627451 13.8823529,35.3444706 13.8823529,34.7058824 C13.8823529,34.0672941 14.4006275,33.5490196 15.0392157,33.5490196 C15.6778039,33.5490196 16.1960784,34.0672941 16.1960784,34.7058824" id="Fill-247" fill="#4198C5"></path>
                        <path d="M23.1372549,34.7058824 C23.1372549,35.3444706 22.6189804,35.8627451 21.9803922,35.8627451 C21.3418039,35.8627451 20.8235294,35.3444706 20.8235294,34.7058824 C20.8235294,34.0672941 21.3418039,33.5490196 21.9803922,33.5490196 C22.6189804,33.5490196 23.1372549,34.0672941 23.1372549,34.7058824" id="Fill-248" fill="#4198C5"></path>
                        <path d="M23.1372549,41.6470588 C23.1372549,42.2856471 22.6189804,42.8039216 21.9803922,42.8039216 C21.3418039,42.8039216 20.8235294,42.2856471 20.8235294,41.6470588 C20.8235294,41.0084706 21.3418039,40.4901961 21.9803922,40.4901961 C22.6189804,40.4901961 23.1372549,41.0084706 23.1372549,41.6470588" id="Fill-249" fill="#4198C5"></path>
                        <path d="M26.6078431,38.1764706 C26.6078431,38.8150588 26.0895686,39.3333333 25.4509804,39.3333333 C24.8123922,39.3333333 24.2941176,38.8150588 24.2941176,38.1764706 C24.2941176,37.5378824 24.8123922,37.0196078 25.4509804,37.0196078 C26.0895686,37.0196078 26.6078431,37.5378824 26.6078431,38.1764706" id="Fill-250" fill="#4198C5"></path>
                        <path d="M33.5490196,38.1764706 C33.5490196,38.8150588 33.0307451,39.3333333 32.3921569,39.3333333 C31.7535686,39.3333333 31.2352941,38.8150588 31.2352941,38.1764706 C31.2352941,37.5378824 31.7535686,37.0196078 32.3921569,37.0196078 C33.0307451,37.0196078 33.5490196,37.5378824 33.5490196,38.1764706" id="Fill-251" fill="#4198C5"></path>
                        <path d="M30.0784314,34.7058824 C30.0784314,35.3444706 29.5601569,35.8627451 28.9215686,35.8627451 C28.2829804,35.8627451 27.7647059,35.3444706 27.7647059,34.7058824 C27.7647059,34.0672941 28.2829804,33.5490196 28.9215686,33.5490196 C29.5601569,33.5490196 30.0784314,34.0672941 30.0784314,34.7058824" id="Fill-252" fill="#4198C5"></path>
                        <path d="M37.0196078,34.7058824 C37.0196078,35.3444706 36.5013333,35.8627451 35.8627451,35.8627451 C35.2241569,35.8627451 34.7058824,35.3444706 34.7058824,34.7058824 C34.7058824,34.0672941 35.2241569,33.5490196 35.8627451,33.5490196 C36.5013333,33.5490196 37.0196078,34.0672941 37.0196078,34.7058824" id="Fill-253" fill="#4198C5"></path>
                        <path d="M30.0784314,41.6470588 C30.0784314,42.2856471 29.5601569,42.8039216 28.9215686,42.8039216 C28.2829804,42.8039216 27.7647059,42.2856471 27.7647059,41.6470588 C27.7647059,41.0084706 28.2829804,40.4901961 28.9215686,40.4901961 C29.5601569,40.4901961 30.0784314,41.0084706 30.0784314,41.6470588" id="Fill-254" fill="#4198C5"></path>
                        <path d="M37.0196078,41.6470588 C37.0196078,42.2856471 36.5013333,42.8039216 35.8627451,42.8039216 C35.2241569,42.8039216 34.7058824,42.2856471 34.7058824,41.6470588 C34.7058824,41.0084706 35.2241569,40.4901961 35.8627451,40.4901961 C36.5013333,40.4901961 37.0196078,41.0084706 37.0196078,41.6470588" id="Fill-255" fill="#4198C5"></path>
                        <path d="M40.4901961,31.2352941 C40.4901961,31.8738824 39.9719216,32.3921569 39.3333333,32.3921569 C38.6947451,32.3921569 38.1764706,31.8738824 38.1764706,31.2352941 C38.1764706,30.5967059 38.6947451,30.0784314 39.3333333,30.0784314 C39.9719216,30.0784314 40.4901961,30.5967059 40.4901961,31.2352941" id="Fill-256" fill="#4198C5"></path>
                        <path d="M47.4313725,31.2352941 C47.4313725,31.8738824 46.913098,32.3921569 46.2745098,32.3921569 C45.6359216,32.3921569 45.1176471,31.8738824 45.1176471,31.2352941 C45.1176471,30.5967059 45.6359216,30.0784314 46.2745098,30.0784314 C46.913098,30.0784314 47.4313725,30.5967059 47.4313725,31.2352941" id="Fill-257" fill="#4198C5"></path>
                        <path d="M40.4901961,38.1764706 C40.4901961,38.8150588 39.9719216,39.3333333 39.3333333,39.3333333 C38.6947451,39.3333333 38.1764706,38.8150588 38.1764706,38.1764706 C38.1764706,37.5378824 38.6947451,37.0196078 39.3333333,37.0196078 C39.9719216,37.0196078 40.4901961,37.5378824 40.4901961,38.1764706" id="Fill-258" fill="#4198C5"></path>
                        <path d="M43.9607843,34.7058824 C43.9607843,35.3444706 43.4425098,35.8627451 42.8039216,35.8627451 C42.1653333,35.8627451 41.6470588,35.3444706 41.6470588,34.7058824 C41.6470588,34.0672941 42.1653333,33.5490196 42.8039216,33.5490196 C43.4425098,33.5490196 43.9607843,34.0672941 43.9607843,34.7058824" id="Fill-259" fill="#4198C5"></path>
                        <path d="M50.9019608,34.7058824 C50.9019608,35.3444706 50.3836863,35.8627451 49.745098,35.8627451 C49.1065098,35.8627451 48.5882353,35.3444706 48.5882353,34.7058824 C48.5882353,34.0672941 49.1065098,33.5490196 49.745098,33.5490196 C50.3836863,33.5490196 50.9019608,34.0672941 50.9019608,34.7058824" id="Fill-260" fill="#4198C5"></path>
                        <path d="M54.372549,31.2352941 C54.372549,31.8738824 53.8542745,32.3921569 53.2156863,32.3921569 C52.577098,32.3921569 52.0588235,31.8738824 52.0588235,31.2352941 C52.0588235,30.5967059 52.577098,30.0784314 53.2156863,30.0784314 C53.8542745,30.0784314 54.372549,30.5967059 54.372549,31.2352941" id="Fill-261" fill="#4198C5"></path>
                    </g>
                </g>
            </g>
        </g>
    </g>
</svg>