<?xml version="1.0" encoding="UTF-8" standalone="no"?>
<svg width="42px" height="43px" viewBox="0 0 42 43" version="1.1" xmlns="http://www.w3.org/2000/svg" xmlns:xlink="http://www.w3.org/1999/xlink" xmlns:sketch="http://www.bohemiancoding.com/sketch/ns">
    <!-- Generator: Sketch 3.3.2 (12043) - http://www.bohemiancoding.com/sketch -->
    <title>fb</title>
    <desc>Created with Sketch.</desc>
    <defs></defs>
    <g id="Anonymous" stroke="none" stroke-width="1" fill="none" fill-rule="evenodd" sketch:type="MSPage">
        <g id="Landing" sketch:type="MSArtboardGroup" transform="translate(-1187.000000, -4237.000000)">
            <g id="FOOTER" sketch:type="MSLayerGroup" transform="translate(1.000000, 4198.000000)">
                <g id="social" transform="translate(1114.000000, 39.000000)" sketch:type="MSShapeGroup">
                    <g id="fb" transform="translate(72.000000, 0.500000)">
                        <path d="M21,42 C32.5979797,42 42,32.5979797 42,21 C42,9.40202025 32.5979797,0 21,0 C9.40202025,0 0,9.40202025 0,21 C0,32.5979797 9.40202025,42 21,42 Z" id="Oval-13-Copy" fill="#385592"></path>
                        <path d="M18.1635294,21.499875 L18.1635294,30 L22.2605882,30 L22.2605882,21.54025 L25.0570588,21.54025 L25.7335294,18.0139688 L22.2894118,18.0139688 L22.2894118,15.427 C22.2894118,15.0689688 22.4788235,14.5915938 23.0517647,14.5915938 L25.0429412,14.5915938 L25.0429412,11 L21.3252941,11 C20.0429412,11 18.1494118,12.5942188 18.1494118,14.289375 L18.1494118,17.913625 L16,17.913625 L16,21.4850313 L18.1635294,21.499875" id="Imported-Layers" fill="#F6F7FB"></path>
                    </g>
                </g>
            </g>
        </g>
    </g>
</svg>