<?xml version="1.0" encoding="UTF-8" standalone="no"?>
<svg width="60px" height="60px" viewBox="0 0 60 60" version="1.1" xmlns="http://www.w3.org/2000/svg" xmlns:xlink="http://www.w3.org/1999/xlink" xmlns:sketch="http://www.bohemiancoding.com/sketch/ns">
    <!-- Generator: Sketch 3.3.2 (12043) - http://www.bohemiancoding.com/sketch -->
    <title>flexibity</title>
    <desc>Created with Sketch.</desc>
    <defs></defs>
    <g id="Anonymous" stroke="none" stroke-width="1" fill="none" fill-rule="evenodd" sketch:type="MSPage">
        <g id="Landing" sketch:type="MSArtboardGroup" transform="translate(-528.000000, -2426.000000)">
            <g id="How-it-Works" sketch:type="MSLayerGroup" transform="translate(0.000000, 2168.000000)">
                <g id="Flexibility" transform="translate(488.000000, 219.000000)" sketch:type="MSShapeGroup">
                    <g id="flexibity" transform="translate(41.000000, 40.000000)">
                        <path d="M0,0 L58,0 L58,58 L0,58 L0,0 Z" id="Fill-31" fill="#FFFFFF"></path>
                        <path d="M0,0 L58,0 L58,58 L0,58 L0,0 Z" id="Stroke-32" stroke="#4198C5" stroke-width="2" stroke-linecap="round" stroke-linejoin="round"></path>
                        <path d="M11,39 C14.314,39 17,41.686 17,45 C17,48.314 14.314,51 11,51 C7.686,51 5,48.314 5,45 C5,41.686 7.686,39 11,39 L11,39 Z" id="Fill-493" fill="#DAEBF4"></path>
                        <path d="M11,39 C14.314,39 17,41.686 17,45 C17,48.314 14.314,51 11,51 C7.686,51 5,48.314 5,45 C5,41.686 7.686,39 11,39 L11,39 Z" id="Stroke-494" stroke="#4198C5" stroke-width="2" stroke-linecap="round" stroke-linejoin="round"></path>
                        <path d="M11,7 L11,39" id="Stroke-495" stroke="#4198C5" stroke-width="2" stroke-linecap="round" stroke-linejoin="round"></path>
                        <path d="M47,19 C50.314,19 53,16.313 53,13 C53,9.686 50.314,7 47,7 C43.686,7 41,9.686 41,13 C41,16.313 43.686,19 47,19 L47,19 Z" id="Fill-496" fill="#DAEBF4"></path>
                        <path d="M47,19 C50.314,19 53,16.313 53,13 C53,9.686 50.314,7 47,7 C43.686,7 41,9.686 41,13 C41,16.313 43.686,19 47,19 L47,19 Z" id="Stroke-497" stroke="#4198C5" stroke-width="2" stroke-linecap="round" stroke-linejoin="round"></path>
                        <path d="M29,34 C32.314,34 35,31.313 35,28 C35,24.686 32.314,22 29,22 C25.686,22 23,24.686 23,28 C23,31.313 25.686,34 29,34 L29,34 Z" id="Fill-498" fill="#DAEBF4"></path>
                        <path d="M29,34 C32.314,34 35,31.313 35,28 C35,24.686 32.314,22 29,22 C25.686,22 23,24.686 23,28 C23,31.313 25.686,34 29,34 L29,34 Z" id="Stroke-499" stroke="#4198C5" stroke-width="2" stroke-linecap="round" stroke-linejoin="round"></path>
                        <path d="M47,51 L47,19 M29,7 L29,22 M29,34 L29,51" id="Stroke-500" stroke="#4198C5" stroke-width="2" stroke-linecap="round" stroke-linejoin="round"></path>
                    </g>
                </g>
            </g>
        </g>
    </g>
</svg>