<?xml version="1.0" encoding="UTF-8" standalone="no"?>
<svg width="20px" height="19px" viewBox="0 0 20 19" version="1.1" xmlns="http://www.w3.org/2000/svg" xmlns:xlink="http://www.w3.org/1999/xlink" xmlns:sketch="http://www.bohemiancoding.com/sketch/ns">
    <!-- Generator: Sketch 3.3.2 (12043) - http://www.bohemiancoding.com/sketch -->
    <title>googleplus@3x</title>
    <desc>Created with Sketch.</desc>
    <defs></defs>
    <g id="Anonymous" stroke="none" stroke-width="1" fill="none" fill-rule="evenodd" sketch:type="MSPage">
        <g id="Login" sketch:type="MSArtboardGroup" transform="translate(-1113.000000, -326.000000)" fill="#F6F7FB">
            <g id="Form" sketch:type="MSLayerGroup" transform="translate(732.000000, 160.000000)">
                <g id="signup-google" transform="translate(350.000000, 143.000000)" sketch:type="MSShapeGroup">
                    <path d="M41.1273125,38.2659062 C41.1273125,38.1061875 41.1100937,37.9524062 41.07625,37.8039687 C41.0418125,37.6555312 41.0055937,37.518375 40.9675937,37.3925 C40.9295937,37.2672187 40.8630937,37.136 40.7675,36.9988437 C40.6725,36.8616875 40.5923437,36.7459062 40.527625,36.6503125 C40.4635,36.5553125 40.3625625,36.4430937 40.2254062,36.3136562 C40.08825,36.1842187 39.98375,36.0874375 39.9113125,36.0227187 C39.838875,35.958 39.7171562,35.860625 39.5461562,35.7311875 C39.3745625,35.60175 39.2564062,35.5144687 39.1916875,35.46875 C39.1275625,35.4230312 39.0016875,35.33575 38.81525,35.2063125 C38.6288125,35.076875 38.5124375,34.9967187 38.4667187,34.9664375 C38.337875,34.951 38.1472812,34.9432812 37.896125,34.9432812 C37.4846562,34.9432812 37.0815,34.97 36.6854687,35.0234375 C36.2900312,35.076875 35.8785625,35.171875 35.4528437,35.3090312 C35.0259375,35.4455937 34.6530625,35.62075 34.333625,35.8339062 C34.0135937,36.0470625 33.7511562,36.3326562 33.5457187,36.6906875 C33.3402812,37.048125 33.2375625,37.4554375 33.2375625,37.9120312 C33.2375625,38.4297812 33.3723437,38.8923125 33.6425,39.299625 C33.9126562,39.7069375 34.267125,40.026375 34.7047187,40.2585312 C35.1423125,40.4906875 35.6012812,40.6640625 36.0804375,40.7780625 C36.5601875,40.8926562 37.0435,40.9496562 37.5309687,40.9496562 C37.9798437,40.9496562 38.4079375,40.9015625 38.81525,40.8065625 C39.2225625,40.7115625 39.6049375,40.563125 39.9629687,40.36125 C40.3204062,40.159375 40.6042187,39.8803125 40.8132187,39.5222812 C41.0228125,39.16425 41.1273125,38.7456562 41.1273125,38.2659062 L41.1273125,38.2659062 Z M39.7575312,28.4239063 C39.7575312,27.9667188 39.6945937,27.481625 39.5687187,26.9680313 C39.4434375,26.4538438 39.2647187,25.9574688 39.0319687,25.4777188 C38.7998125,24.9979688 38.480375,24.6025313 38.0730625,24.2902188 C37.66575,23.9785 37.2109375,23.8223438 36.708625,23.8223438 C36.0002812,23.8223438 35.4528437,24.0847813 35.0645312,24.6096563 C34.6762187,25.135125 34.4820625,25.7633125 34.4820625,26.4942188 C34.4820625,26.8516563 34.526,27.2286875 34.6132812,27.6247188 C34.7011562,28.0201563 34.8359375,28.4161875 35.0188125,28.8122188 C35.2010937,29.2076563 35.41425,29.5639063 35.6582812,29.8791875 C35.9017187,30.1956563 36.1985937,30.4521563 36.5489062,30.6504688 C36.898625,30.8481875 37.2679375,30.9473438 37.65625,30.9473438 C38.394875,30.9473438 38.92925,30.7169688 39.2605625,30.2562188 C39.591875,29.7954688 39.7575312,29.1850938 39.7575312,28.4239063 L39.7575312,28.4239063 Z M38.2612813,23 L43.2511563,23 L41.7097812,23.9019062 L40.1684062,23.9019062 C40.7087188,24.2445 41.1273125,24.72425 41.4241875,25.3405625 C41.7210625,25.9574688 41.8695,26.6005 41.8695,27.27025 C41.8695,27.8337187 41.7822187,28.33425 41.6070625,28.7718438 C41.4319062,29.2100313 41.21875,29.5615312 40.9675937,29.828125 C40.7164375,30.0947187 40.4652813,30.3399375 40.214125,30.564375 C39.9629688,30.7894062 39.7492187,31.0215625 39.5746563,31.2614375 C39.3995,31.5007188 39.3122187,31.7578125 39.3122187,32.0315313 C39.3122187,32.2298438 39.3745625,32.424 39.5004375,32.614 C39.6257188,32.8045937 39.7895938,32.986875 39.9914688,33.1620312 C40.19275,33.3371875 40.4154063,33.5200625 40.6594375,33.7106562 C40.902875,33.9006562 41.1463125,34.1120313 41.3903437,34.3441875 C41.6337812,34.5763437 41.8564375,34.8275 42.0583125,35.0976562 C42.2595938,35.3678125 42.4234687,35.6914062 42.54875,36.0684375 C42.674625,36.444875 42.7375625,36.8504062 42.7375625,37.2844375 C42.7375625,38.5022187 42.204375,39.5757188 41.1385937,40.5043438 C39.9819688,41.50125 38.383,42 36.3434687,42 C35.894,42 35.4391875,41.962 34.9784375,41.886 C34.5182813,41.81 34.0539688,41.6823438 33.5855,41.503625 C33.117625,41.3243125 32.704375,41.1034375 32.3469375,40.841 C31.9889062,40.5785625 31.6955938,40.2395312 31.4675937,39.8245 C31.239,39.4100625 31.125,38.9475312 31.125,38.4375 C31.125,37.9731875 31.2657188,37.459 31.5471563,36.896125 C31.7911875,36.40925 32.1563437,35.9882812 32.6438125,35.6344062 C33.1306875,35.2805312 33.682875,35.0097813 34.2991875,34.8239375 C34.9160938,34.6369063 35.5056875,34.5003437 36.0691562,34.4124688 C36.632625,34.3251875 37.2032187,34.2735313 37.7815313,34.2580938 C37.2946563,33.6269375 37.0512187,33.0593125 37.0512187,32.557 C37.0512187,32.4655625 37.0589375,32.3765 37.0737813,32.288625 C37.0892188,32.2013437 37.1082187,32.127125 37.1307812,32.0659687 C37.1539375,32.0054063 37.1842187,31.9234687 37.2222188,31.82075 C37.2608125,31.7180312 37.2869375,31.6360938 37.302375,31.5749375 C36.9977813,31.6129375 36.7311875,31.6325312 36.5031875,31.6325312 C35.369125,31.6325312 34.3965625,31.2590625 33.5855,30.5133125 C32.7750312,29.7675625 32.3695,28.830625 32.3695,27.7042813 C32.3695,26.6385 32.7310937,25.6855313 33.4542813,24.8441875 C34.1774688,24.0028438 35.0680938,23.4643125 36.1261563,23.2285937 C36.841625,23.076 37.5535312,23 38.2612813,23 L38.2612813,23 Z M50.125,25.9230313 L50.125,27.3848437 L47.2019688,27.3848437 L47.2019688,30.307875 L45.7401563,30.307875 L45.7401563,27.3848437 L42.817125,27.3848437 L42.817125,25.9230313 L45.7401563,25.9230313 L45.7401563,23 L47.2019688,23 L47.2019688,25.9230313 L50.125,25.9230313 L50.125,25.9230313 Z" id="googleplus"></path>
                </g>
            </g>
        </g>
    </g>
</svg>