<?xml version="1.0" encoding="UTF-8" standalone="no"?>
<svg width="19px" height="19px" viewBox="0 0 19 19" version="1.1" xmlns="http://www.w3.org/2000/svg" xmlns:xlink="http://www.w3.org/1999/xlink" xmlns:sketch="http://www.bohemiancoding.com/sketch/ns">
    <!-- Generator: Sketch 3.3.2 (12043) - http://www.bohemiancoding.com/sketch -->
    <title>help@3x</title>
    <desc>Created with Sketch.</desc>
    <defs></defs>
    <g id="Guest-Account" stroke="none" stroke-width="1" fill="none" fill-rule="evenodd" sketch:type="MSPage">
        <g id="Guest-Account---List" sketch:type="MSArtboardGroup" transform="translate(-1149.000000, -129.000000)">
            <g id="Sort" sketch:type="MSLayerGroup" transform="translate(0.000000, 100.000000)">
                <g id="options" transform="translate(443.000000, 22.000000)" sketch:type="MSShapeGroup">
                    <g id="help" transform="translate(707.000000, 8.000000)">
                        <path d="M17,8.5 C17,13.19438 13.19438,17 8.5,17 C3.80562,17 0,13.19438 0,8.5 C0,3.80562 3.80562,0 8.5,0 C13.19438,0 17,3.80562 17,8.5 L17,8.5 Z" id="Fill-369"></path>
                        <path d="M17,8.5 C17,13.19438 13.19438,17 8.5,17 C3.80562,17 0,13.19438 0,8.5 C0,3.80562 3.80562,0 8.5,0 C13.19438,0 17,3.80562 17,8.5 L17,8.5 Z" id="Stroke-370" stroke="#DAEBF4" stroke-width="1.5" stroke-linejoin="round"></path>
                        <path d="M8.5,12.58 L8.5,13.26 M6.12,5.44 C6.12,4.11434 7.20392,3.04164 8.534,3.06034 C9.79778,3.07802 10.86232,4.14222 10.87966,5.406 C10.89156,6.25974 10.45398,7.01216 9.7886,7.44124 C8.9607,7.97538 8.5,8.92874 8.5,9.91372 L8.5,10.88" id="Stroke-373" stroke="#DAEBF4" stroke-width="1.5" stroke-linecap="round" stroke-linejoin="round"></path>
                    </g>
                </g>
            </g>
        </g>
    </g>
</svg>