<?xml version="1.0" encoding="UTF-8" standalone="no"?>
<svg width="16px" height="14px" viewBox="0 0 16 14" version="1.1" xmlns="http://www.w3.org/2000/svg" xmlns:xlink="http://www.w3.org/1999/xlink" xmlns:sketch="http://www.bohemiancoding.com/sketch/ns">
    <!-- Generator: Sketch 3.3.2 (12043) - http://www.bohemiancoding.com/sketch -->
    <title>join-the-team@3x</title>
    <desc>Created with Sketch.</desc>
    <defs></defs>
    <g id="Anonymous" stroke="none" stroke-width="1" fill="none" fill-rule="evenodd" sketch:type="MSPage">
        <g id="Landing---Header" sketch:type="MSArtboardGroup" transform="translate(-964.000000, -45.000000)" fill="#4198C5">
            <g id="HEADER" sketch:type="MSLayerGroup">
                <g id="join-the-team" transform="translate(964.000000, 45.000000)" sketch:type="MSShapeGroup">
                    <path d="M15.1973333,2.47058824 L14.6666667,2.47058824 L14.6666667,1.64705882 L12,1.64705882 L12,2.47058824 L10.9333333,2.47058824 L10.9333333,0.880078431 C10.9333333,0.394745098 10.5498667,0 10.0784,0 L5.9216,0 C5.45013333,0 5.06666667,0.394745098 5.06666667,0.880078431 L5.06666667,2.47058824 L4,2.47058824 L4,1.64705882 L1.33333333,1.64705882 L1.33333333,2.47058824 L0.802666667,2.47058824 C0.360266667,2.47058824 0,2.84145098 0,3.29686275 L0,13.1737255 C0,13.6291373 0.360266667,14 0.802666667,14 L15.1973333,14 C15.6397333,14 16,13.6291373 16,13.1737255 L16,3.29686275 C16,2.84145098 15.6397333,2.47058824 15.1973333,2.47058824 L15.1973333,2.47058824 Z M5.6,0.880078431 C5.6,0.697529412 5.74426667,0.549019608 5.9216,0.549019608 L10.0784,0.549019608 C10.2557333,0.549019608 10.4,0.697529412 10.4,0.880078431 L10.4,2.47058824 L5.6,2.47058824 L5.6,0.880078431 L5.6,0.880078431 Z M2.13333333,3.01960784 L2.66666667,3.01960784 L2.66666667,13.4509804 L2.13333333,13.4509804 L2.13333333,3.01960784 Z M13.3333333,3.01960784 L13.8666667,3.01960784 L13.8666667,13.4509804 L13.3333333,13.4509804 L13.3333333,3.01960784 Z" id="Fill-1348"></path>
                </g>
            </g>
        </g>
    </g>
</svg>