<?xml version="1.0" encoding="UTF-8" standalone="no"?>
<svg width="14px" height="15px" viewBox="0 0 14 15" version="1.1" xmlns="http://www.w3.org/2000/svg" xmlns:xlink="http://www.w3.org/1999/xlink" xmlns:sketch="http://www.bohemiancoding.com/sketch/ns">
    <!-- Generator: Sketch 3.3.2 (12043) - http://www.bohemiancoding.com/sketch -->
    <title>link</title>
    <desc>Created with Sketch.</desc>
    <defs></defs>
    <g id="Anonymous" stroke="none" stroke-width="1" fill="none" fill-rule="evenodd" sketch:type="MSPage">
        <g id="Landing" sketch:type="MSArtboardGroup" transform="translate(-840.000000, -2045.000000)">
            <g id="Trading-Championship" sketch:type="MSLayerGroup" transform="translate(0.000000, 1691.000000)">
                <g id="link" transform="translate(580.000000, 354.000000)" sketch:type="MSShapeGroup">
                    <g transform="translate(261.000000, 1.000000)">
                        <path d="M10.1111111,1.71103636 L10.1111111,0 L13,2.85172727 L10.1111111,5.70345455 L10.1111111,3.99241818 C10.1111111,3.99241818 7.54577778,3.38307273 5.79342593,6.2738 C5.79342593,6.27403636 5.35648148,4.06734545 7.3137037,2.46858182 C7.3137037,2.46858182 8.20011111,1.65454545 10.1111111,1.71103636 L10.1111111,1.71103636 Z" id="Fill-52" fill="#DAEBF4"></path>
                        <path d="M10.1111111,1.71103636 L10.1111111,0 L13,2.85172727 L10.1111111,5.70345455 L10.1111111,3.99241818 C10.1111111,3.99241818 7.54577778,3.38307273 5.79342593,6.2738 C5.79342593,6.27403636 5.35648148,4.06734545 7.3137037,2.46858182 C7.3137037,2.46858182 8.20011111,1.65454545 10.1111111,1.71103636 L10.1111111,1.71103636 Z" id="Stroke-53" stroke="#4198C5" stroke-width="0.5" stroke-linejoin="round"></path>
                        <path d="M10.1111111,5.70345455 L10.1111111,3.99241818 C10.1111111,3.99241818 7.54577778,3.38307273 5.79342593,6.2738 C5.79342593,6.27403636 5.35648148,4.06734545 7.3137037,2.46858182 C7.3137037,2.46858182 7.49498148,2.3036 7.86692593,2.12727273 L0,2.12727273 L0,13 L11.0740741,13 L11.0740741,4.7528 L10.1111111,5.70345455 L10.1111111,5.70345455 Z" id="Fill-54" fill="#FFFFFF"></path>
                        <path d="M10.1111111,5.70345455 L10.1111111,3.99241818 C10.1111111,3.99241818 7.54577778,3.38307273 5.79342593,6.2738 C5.79342593,6.27403636 5.35648148,4.06734545 7.3137037,2.46858182 C7.3137037,2.46858182 7.49498148,2.3036 7.86692593,2.12727273 L0,2.12727273 L0,13 L11.0740741,13 L11.0740741,4.7528 L10.1111111,5.70345455 L10.1111111,5.70345455 Z" id="Stroke-55" stroke="#4198C5" stroke-width="0.5" stroke-linejoin="round"></path>
                    </g>
                </g>
            </g>
        </g>
    </g>
</svg>