<?xml version="1.0" encoding="UTF-8" standalone="no"?>
<svg width="19px" height="19px" viewBox="0 0 19 19" version="1.1" xmlns="http://www.w3.org/2000/svg" xmlns:xlink="http://www.w3.org/1999/xlink" xmlns:sketch="http://www.bohemiancoding.com/sketch/ns">
    <!-- Generator: Sketch 3.3.2 (12043) - http://www.bohemiancoding.com/sketch -->
    <title>linkedin button</title>
    <desc>Created with Sketch.</desc>
    <defs></defs>
    <g id="Anonymous" stroke="none" stroke-width="1" fill="none" fill-rule="evenodd" sketch:type="MSPage">
        <g id="Login" sketch:type="MSArtboardGroup" transform="translate(-1167.000000, -330.000000)" fill="#FFFFFF">
            <g id="Form" sketch:type="MSLayerGroup" transform="translate(732.000000, 160.000000)">
                <g id="login-linkedin" transform="translate(290.000000, 146.000000)" sketch:type="MSShapeGroup">
                    <g id="Login-with-+-Imported-Layers" transform="translate(37.000000, 22.000000)">
                        <path d="M112.302312,4.03121875 C112.302312,5.1528125 111.474031,6.06184375 110.111375,6.06184375 C108.828875,6.06184375 108,5.1528125 108,4.03121875 C108,2.8823125 108.856188,2 110.164812,2 C111.474031,2 112.276188,2.8823125 112.302312,4.03121875 L112.302312,4.03121875 Z M108.107469,7.66675 L112.169313,7.66675 L112.169313,20.7345938 L108.107469,20.7345938 L108.107469,7.66675 Z M114.600125,11.834875 C114.600125,10.2050312 114.546688,8.842375 114.492656,7.66675 L118.020125,7.66675 L118.208344,9.483625 L118.2885,9.483625 C118.822875,8.62803125 120.132688,7.37284375 122.324219,7.37284375 C124.9955,7.37284375 127,9.16359375 127,13.0116875 L127,20.7351875 L122.938156,20.7351875 L122.938156,13.492625 C122.938156,11.8093438 122.349156,10.6598437 120.879625,10.6598437 C119.758031,10.6598437 119.090656,11.4346875 118.796156,12.1828125 C118.688688,12.45 118.661969,12.8234687 118.661969,13.1987187 L118.661969,20.7351875 L114.600125,20.7351875 L114.600125,11.834875 L114.600125,11.834875 Z" id="linkedin-button"></path>
                    </g>
                </g>
            </g>
        </g>
    </g>
</svg>