<?xml version="1.0" encoding="UTF-8" standalone="no"?>
<svg width="272px" height="47px" viewBox="0 0 272 47" version="1.1" xmlns="http://www.w3.org/2000/svg" xmlns:xlink="http://www.w3.org/1999/xlink" xmlns:sketch="http://www.bohemiancoding.com/sketch/ns">
    <!-- Generator: Sketch 3.3.2 (12043) - http://www.bohemiancoding.com/sketch -->
    <title>Logo White</title>
    <desc>Created with Sketch.</desc>
    <defs></defs>
    <g id="Anonymous" stroke="none" stroke-width="1" fill="none" fill-rule="evenodd" sketch:type="MSPage">
        <g id="Landing" sketch:type="MSArtboardGroup" transform="translate(-56.000000, -28.000000)" fill="#FFFFFF">
            <g id="HEADER" sketch:type="MSLayerGroup" transform="translate(56.000000, 24.000000)">
                <g id="Logo-White" transform="translate(0.000000, 4.000000)" sketch:type="MSShapeGroup">
                    <g id="Group" transform="translate(0.510490, 0.139960)">
                        <path d="M30.568066,38.1556232 C29.8983666,37.6325766 29.1909824,37.0704831 28.4477296,36.4707049 C28.1462513,35.1049721 27.8120827,33.6507028 27.4588446,32.1401334 C27.9287693,31.3805354 28.3955157,30.6123107 28.8554516,29.843178 C28.4477296,29.924904 28.0363752,30.0029978 27.6182104,30.0797294 C27.0311451,29.315137 26.4286426,28.5351075 25.8161514,27.741911 C25.2899266,27.4803877 24.7596155,27.214324 24.2256721,26.9482604 C22.9788961,26.5042157 21.7189532,26.0551765 20.4871603,25.6120398 C19.4714874,24.0115718 18.4798782,22.4269949 17.540937,20.9182416 C16.9743032,19.8226588 16.4308251,18.7615825 15.9164051,17.7504499 C15.9713432,16.3302331 16.0394482,14.95996 16.1220823,13.6673267 C15.3247995,12.3233875 14.612875,11.123377 13.9785902,10.0550362 C13.0532699,9.68000455 12.2019571,9.3621811 11.4114848,9.0706916 C10.8262356,9.51428232 10.2700446,9.98420699 9.76515937,10.4763793 C8.84301734,11.3081687 8.07297654,12.2112413 7.53494685,13.1633495 C7.87638004,12.3370086 8.33313773,11.5283749 8.87389162,10.7628744 C8.57105128,10.8100939 8.28728035,10.8636699 8.01667638,10.9226942 C7.92950195,10.4368784 7.83642509,9.95060851 7.73290545,9.4597983 C8.0711604,8.90996374 8.46435341,8.38691716 8.89477716,7.89610695 C8.50158416,7.96557408 8.12201216,8.03685733 7.75379099,8.11222689 C7.83188475,7.73401699 7.91905918,7.3598934 8.01077395,6.99167223 C8.30771185,6.91176234 8.60919009,6.83185244 8.91657077,6.75784498 C8.76129131,6.51584513 8.58830455,6.2511436 8.41985813,5.99234451 C3.52537707,10.1540155 0.410253265,16.3497566 0.410253265,23.2814859 C0.410253265,35.8187128 10.5719769,45.9827066 23.1119279,45.9827066 C24.6138707,45.9827066 26.0794909,45.8287892 27.5001617,45.5509207 C28.5153806,43.8482951 29.5796351,41.2403267 30.568066,38.1556232 L30.568066,38.1556232 Z" id="Shape"></path>
                        <path d="M23.1119279,0.580265268 C18.6292553,0.580265268 14.4607738,1.8969624 10.9415602,4.13897979 C12.3486099,4.7355798 13.6762039,5.10243886 15.1291111,5.48064876 C15.8265065,5.07882912 16.5225399,4.74466047 17.2113087,4.48722348 C18.3795368,4.77099441 19.6299451,5.06112182 20.9825109,5.44795835 C23.6753835,5.22956824 26.3414682,5.17417616 28.8586299,5.20278027 C29.0388812,5.88383051 29.2032413,6.74967238 29.3526183,7.76670741 C28.2883638,7.80075992 27.1800681,7.86886494 26.0386278,7.97238458 C25.8402152,8.40053816 25.6318138,8.85593376 25.416602,9.34084153 C26.6079859,10.3415313 27.8375086,11.4793393 29.0447836,12.7061378 C29.3181118,12.6970571 29.5887157,12.6897926 29.8543253,12.6866143 C29.9433159,11.3140711 30.0086967,10.0545822 30.0422952,8.93039525 C30.7297019,8.99532204 31.394861,9.0706916 32.0418587,9.16240637 C32.4109879,9.86615828 32.7696744,10.6134974 33.1179181,11.3953431 C33.4271149,11.2700298 33.726777,11.150165 34.0164504,11.0375647 C34.8981834,12.790588 35.6877477,14.7106957 36.3411019,16.6335275 C35.5942168,16.8787056 34.7138458,17.1919887 33.7163342,17.5674744 C32.9467475,17.9443222 32.1063315,18.3593088 31.2096153,18.8147044 C30.5240247,19.8108539 29.7866743,20.8705681 29.0166335,21.9656969 C29.0243521,22.5241581 29.0298005,23.0862515 29.0343408,23.6537934 C28.7428513,23.6919322 28.4504538,23.7291629 28.154878,23.77048 C27.9360338,23.1543565 27.7203679,22.5391412 27.4987996,21.927104 C26.3455545,22.076481 25.1546246,22.2376629 23.9541601,22.4092876 C23.6880965,23.1598049 23.423849,23.9153167 23.1559692,24.6749147 C23.4665281,25.1207756 23.7798112,25.5675446 24.0926403,26.0134054 C24.5375931,25.6560811 24.9811838,25.2996648 25.4229584,24.9446106 C25.8651871,24.990922 26.3037834,25.0349633 26.7401096,25.0821828 C26.5258058,25.7073869 26.3069616,26.3389475 26.0876635,26.9686919 C26.6111641,27.0022904 27.1314865,27.0349808 27.6427282,27.064493 C27.8111746,27.7237496 27.979621,28.3784659 28.141257,29.0254636 C28.480874,29.1362478 28.8164048,29.2429457 29.1478492,29.3491895 C29.3989297,28.9233061 29.6472861,28.4992388 29.8929182,28.0751715 C31.5106395,28.2113816 33.0066799,28.3235279 34.2911406,28.4047999 C35.1456317,29.1553172 35.896149,29.8459022 36.5258935,30.4606635 C36.6058034,31.0354699 36.6798108,31.5998336 36.7506401,32.1537544 C37.536572,32.5424071 38.1245454,32.8366208 38.5077497,33.0323092 C38.2902676,34.5664884 37.9270408,36.1710428 37.4257879,37.7497172 C36.9989964,38.0752592 36.5081862,38.3853641 35.9669783,38.6777617 C35.8384868,39.237585 35.7022767,39.7878736 35.5601642,40.3231791 C34.2875084,41.826484 32.7669502,43.1736013 31.1959943,44.2573793 C31.097015,44.3772441 30.9953115,44.4685049 30.8958782,44.5838294 C39.5947059,41.4024167 45.8131486,33.0799827 45.8131486,23.2814859 C45.8131486,10.743805 35.6496088,0.580265268 23.1119279,0.580265268 L23.1119279,0.580265268 Z" id="Shape"></path>
                    </g>
                    <g id="tagline-copy" transform="translate(61.730828, 32.694834)">
                        <ellipse id="Oval-1" cx="64.3541809" cy="3.29028479" rx="1.80621422" ry="1.62033198"></ellipse>
                        <ellipse id="Oval-1-Copy" cx="138.55224" cy="3.29028479" rx="1.80621422" ry="1.62033198"></ellipse>
                        <path d="M4.6921824,6.18550907 L3.10162292,3.78199698 C3.9057391,3.71130544 4.63916375,3.1281003 4.63916375,2.06772732 C4.63916375,0.98084501 3.86155689,0.291602571 2.78351102,0.291602571 L0.415344693,0.291602571 L0.415344693,6.18550907 L1.14876934,6.18550907 L1.14876934,3.84385207 L2.33285251,3.84385207 L3.82621112,6.18550907 L4.6921824,6.18550907 Z M2.69514661,3.19879183 L1.14876934,3.19879183 L1.14876934,0.945499244 L2.69514661,0.945499244 C3.39322549,0.945499244 3.87922977,1.39615776 3.87922977,2.06772732 C3.87922977,2.73046043 3.39322549,3.19879183 2.69514661,3.19879183 L2.69514661,3.19879183 Z M9.92335579,6.18550907 L9.92335579,5.5316124 L6.79525549,5.5316124 L6.79525549,3.49923085 L9.8615007,3.49923085 L9.8615007,2.84533417 L6.79525549,2.84533417 L6.79525549,0.945499244 L9.92335579,0.945499244 L9.92335579,0.291602571 L6.06183084,0.291602571 L6.06183084,6.18550907 L9.92335579,6.18550907 Z M16.4004674,6.18550907 L14.0323011,0.291602571 L13.1221476,0.291602571 L10.7451449,6.18550907 L11.5846068,6.18550907 L12.1059569,4.86887928 L15.0396555,4.86887928 L15.5610055,6.18550907 L16.4004674,6.18550907 Z M14.8275809,4.22381905 L12.3268679,4.22381905 L13.5728062,1.0427001 L14.8275809,4.22381905 Z M20.8098518,6.18550907 L20.8098518,5.5316124 L18.0705549,5.5316124 L18.0705549,0.291602571 L17.3371303,0.291602571 L17.3371303,6.18550907 L20.8098518,6.18550907 Z M25.3429463,6.18550907 L25.3429463,3.84385207 L26.977688,3.84385207 C28.1529347,3.84385207 28.8245043,3.03089945 28.8245043,2.06772732 C28.8245043,1.10455519 28.1617712,0.291602571 26.977688,0.291602571 L24.6095217,0.291602571 L24.6095217,6.18550907 L25.3429463,6.18550907 Z M26.8893236,3.18995539 L25.3429463,3.18995539 L25.3429463,0.945499244 L26.8893236,0.945499244 C27.5874025,0.945499244 28.0645703,1.4049942 28.0645703,2.06772732 C28.0645703,2.73046043 27.5874025,3.18995539 26.8893236,3.18995539 L26.8893236,3.18995539 Z M33.923131,6.18550907 L33.923131,5.5316124 L30.7950307,5.5316124 L30.7950307,3.49923085 L33.861276,3.49923085 L33.861276,2.84533417 L30.7950307,2.84533417 L30.7950307,0.945499244 L33.923131,0.945499244 L33.923131,0.291602571 L30.0616061,0.291602571 L30.0616061,6.18550907 L33.923131,6.18550907 Z M38.0409128,6.29154637 C39.7816918,6.29154637 40.9746114,4.98375302 40.9746114,3.24297404 C40.9746114,1.50219506 39.7816918,0.194401714 38.0409128,0.194401714 C36.3001338,0.194401714 35.1160507,1.50219506 35.1160507,3.24297404 C35.1160507,4.98375302 36.3001338,6.29154637 38.0409128,6.29154637 L38.0409128,6.29154637 Z M38.0409128,5.6376497 C36.7154466,5.6376497 35.8759846,4.61262248 35.8759846,3.24297404 C35.8759846,1.86448916 36.7154466,0.848298387 38.0409128,0.848298387 C39.3575426,0.848298387 40.2146774,1.86448916 40.2146774,3.24297404 C40.2146774,4.61262248 39.3575426,5.6376497 38.0409128,5.6376497 L38.0409128,5.6376497 Z M43.1130303,6.18550907 L43.1130303,3.84385207 L44.7477719,3.84385207 C45.9230187,3.84385207 46.5945882,3.03089945 46.5945882,2.06772732 C46.5945882,1.10455519 45.9318551,0.291602571 44.7477719,0.291602571 L42.3796056,0.291602571 L42.3796056,6.18550907 L43.1130303,6.18550907 Z M44.6594075,3.18995539 L43.1130303,3.18995539 L43.1130303,0.945499244 L44.6594075,0.945499244 C45.3574864,0.945499244 45.8346543,1.4049942 45.8346543,2.06772732 C45.8346543,2.73046043 45.3574864,3.18995539 44.6594075,3.18995539 L44.6594075,3.18995539 Z M51.2072107,6.18550907 L51.2072107,5.5316124 L48.4679138,5.5316124 L48.4679138,0.291602571 L47.7344892,0.291602571 L47.7344892,6.18550907 L51.2072107,6.18550907 Z M56.3146739,6.18550907 L56.3146739,5.5316124 L53.1865736,5.5316124 L53.1865736,3.49923085 L56.2528188,3.49923085 L56.2528188,2.84533417 L53.1865736,2.84533417 L53.1865736,0.945499244 L56.3146739,0.945499244 L56.3146739,0.291602571 L52.453149,0.291602571 L52.453149,6.18550907 L56.3146739,6.18550907 Z M77.3454049,6.18550907 L75.7548454,3.78199698 C76.5589616,3.71130544 77.2923862,3.1281003 77.2923862,2.06772732 C77.2923862,0.98084501 76.5147793,0.291602571 75.4367335,0.291602571 L73.0685672,0.291602571 L73.0685672,6.18550907 L73.8019918,6.18550907 L73.8019918,3.84385207 L74.986075,3.84385207 L76.4794336,6.18550907 L77.3454049,6.18550907 Z M75.3483691,3.19879183 L73.8019918,3.19879183 L73.8019918,0.945499244 L75.3483691,0.945499244 C76.0464479,0.945499244 76.5324522,1.39615776 76.5324522,2.06772732 C76.5324522,2.73046043 76.0464479,3.19879183 75.3483691,3.19879183 L75.3483691,3.19879183 Z M82.5765782,6.18550907 L82.5765782,5.5316124 L79.4484779,5.5316124 L79.4484779,3.49923085 L82.5147232,3.49923085 L82.5147232,2.84533417 L79.4484779,2.84533417 L79.4484779,0.945499244 L82.5765782,0.945499244 L82.5765782,0.291602571 L78.7150533,0.291602571 L78.7150533,6.18550907 L82.5765782,6.18550907 Z M89.0536899,6.18550907 L86.6855236,0.291602571 L85.7753701,0.291602571 L83.3983673,6.18550907 L84.2378293,6.18550907 L84.7591793,4.86887928 L87.6928779,4.86887928 L88.214228,6.18550907 L89.0536899,6.18550907 Z M87.4808033,4.22381905 L84.9800904,4.22381905 L86.2260286,1.0427001 L87.4808033,4.22381905 Z M93.4630742,6.18550907 L93.4630742,5.5316124 L90.7237774,5.5316124 L90.7237774,0.291602571 L89.9903527,0.291602571 L89.9903527,6.18550907 L93.4630742,6.18550907 Z M99.4541816,6.18550907 L99.4541816,0.945499244 L101.327507,0.945499244 L101.327507,0.291602571 L96.8562678,0.291602571 L96.8562678,0.945499244 L98.720757,0.945499244 L98.720757,6.18550907 L99.4541816,6.18550907 Z M106.841447,6.18550907 L105.250887,3.78199698 C106.055003,3.71130544 106.788428,3.1281003 106.788428,2.06772732 C106.788428,0.98084501 106.010821,0.291602571 104.932775,0.291602571 L102.564609,0.291602571 L102.564609,6.18550907 L103.298034,6.18550907 L103.298034,3.84385207 L104.482117,3.84385207 L105.975475,6.18550907 L106.841447,6.18550907 Z M104.844411,3.19879183 L103.298034,3.19879183 L103.298034,0.945499244 L104.844411,0.945499244 C105.54249,0.945499244 106.028494,1.39615776 106.028494,2.06772732 C106.028494,2.73046043 105.54249,3.19879183 104.844411,3.19879183 L104.844411,3.19879183 Z M113.256703,6.18550907 L110.888537,0.291602571 L109.978384,0.291602571 L107.601381,6.18550907 L108.440843,6.18550907 L108.962193,4.86887928 L111.895891,4.86887928 L112.417241,6.18550907 L113.256703,6.18550907 Z M111.683817,4.22381905 L109.183104,4.22381905 L110.429042,1.0427001 L111.683817,4.22381905 Z M116.305276,6.18550907 C118.143255,6.18550907 119.327339,4.92189793 119.327339,3.24297404 C119.327339,1.57288659 118.143255,0.291602571 116.305276,0.291602571 L114.290567,0.291602571 L114.290567,6.18550907 L116.305276,6.18550907 Z M116.305276,5.5316124 L115.023992,5.5316124 L115.023992,0.945499244 L116.305276,0.945499244 C117.763289,0.945499244 118.567405,1.97052646 118.567405,3.24297404 C118.567405,4.50658518 117.736779,5.5316124 116.305276,5.5316124 L116.305276,5.5316124 Z M124.602694,6.18550907 L124.602694,5.5316124 L121.474594,5.5316124 L121.474594,3.49923085 L124.540839,3.49923085 L124.540839,2.84533417 L121.474594,2.84533417 L121.474594,0.945499244 L124.602694,0.945499244 L124.602694,0.291602571 L120.741169,0.291602571 L120.741169,6.18550907 L124.602694,6.18550907 Z M127.942869,6.29154637 C129.533429,6.29154637 130.116634,5.40790222 130.116634,4.55960383 C130.116634,2.35932989 126.626239,3.11926386 126.626239,1.79379763 C126.626239,1.23710181 127.138753,0.857134829 127.836832,0.857134829 C128.481892,0.857134829 129.100443,1.06920943 129.542265,1.56405015 L129.984087,1.02502722 C129.489246,0.503677167 128.791168,0.194401714 127.898687,0.194401714 C126.732277,0.194401714 125.866305,0.86597127 125.866305,1.83797984 C125.866305,3.94105292 129.3567,3.09275454 129.3567,4.61262248 C129.3567,5.07211744 129.020915,5.6376497 127.969378,5.6376497 C127.138753,5.6376497 126.502529,5.23117339 126.122562,4.78935131 L125.68074,5.35488357 C126.166744,5.90274294 126.926678,6.29154637 127.942869,6.29154637 L127.942869,6.29154637 Z M151.076673,6.18550907 L149.486114,3.78199698 C150.29023,3.71130544 151.023655,3.1281003 151.023655,2.06772732 C151.023655,0.98084501 150.246048,0.291602571 149.168002,0.291602571 L146.799835,0.291602571 L146.799835,6.18550907 L147.53326,6.18550907 L147.53326,3.84385207 L148.717343,3.84385207 L150.210702,6.18550907 L151.076673,6.18550907 Z M149.079637,3.19879183 L147.53326,3.19879183 L147.53326,0.945499244 L149.079637,0.945499244 C149.777716,0.945499244 150.263721,1.39615776 150.263721,2.06772732 C150.263721,2.73046043 149.777716,3.19879183 149.079637,3.19879183 L149.079637,3.19879183 Z M156.307847,6.18550907 L156.307847,5.5316124 L153.179746,5.5316124 L153.179746,3.49923085 L156.245991,3.49923085 L156.245991,2.84533417 L153.179746,2.84533417 L153.179746,0.945499244 L156.307847,0.945499244 L156.307847,0.291602571 L152.446322,0.291602571 L152.446322,6.18550907 L156.307847,6.18550907 Z M162.784958,6.18550907 L160.416792,0.291602571 L159.506638,0.291602571 L157.129636,6.18550907 L157.969098,6.18550907 L158.490448,4.86887928 L161.424146,4.86887928 L161.945496,6.18550907 L162.784958,6.18550907 Z M161.212072,4.22381905 L158.711359,4.22381905 L159.957297,1.0427001 L161.212072,4.22381905 Z M167.194343,6.18550907 L167.194343,5.5316124 L164.455046,5.5316124 L164.455046,0.291602571 L163.721621,0.291602571 L163.721621,6.18550907 L167.194343,6.18550907 Z M175.27085,6.18550907 L173.680291,3.78199698 C174.484407,3.71130544 175.217831,3.1281003 175.217831,2.06772732 C175.217831,0.98084501 174.440225,0.291602571 173.362179,0.291602571 L170.994012,0.291602571 L170.994012,6.18550907 L171.727437,6.18550907 L171.727437,3.84385207 L172.91152,3.84385207 L174.404879,6.18550907 L175.27085,6.18550907 Z M173.273814,3.19879183 L171.727437,3.19879183 L171.727437,0.945499244 L173.273814,0.945499244 C173.971893,0.945499244 174.457898,1.39615776 174.457898,2.06772732 C174.457898,2.73046043 173.971893,3.19879183 173.273814,3.19879183 L173.273814,3.19879183 Z M180.502024,6.18550907 L180.502024,5.5316124 L177.373923,5.5316124 L177.373923,3.49923085 L180.440168,3.49923085 L180.440168,2.84533417 L177.373923,2.84533417 L177.373923,0.945499244 L180.502024,0.945499244 L180.502024,0.291602571 L176.640499,0.291602571 L176.640499,6.18550907 L180.502024,6.18550907 Z M184.124965,6.18550907 L184.124965,0.945499244 L185.99829,0.945499244 L185.99829,0.291602571 L181.527051,0.291602571 L181.527051,0.945499244 L183.39154,0.945499244 L183.39154,6.18550907 L184.124965,6.18550907 Z M189.638904,6.29154637 C191.2383,6.29154637 192.051253,5.35488357 192.051253,3.88803427 L192.051253,0.291602571 L191.308992,0.291602571 L191.308992,3.87919783 C191.308992,4.9572437 190.725786,5.6376497 189.638904,5.6376497 C188.552022,5.6376497 187.977653,4.9572437 187.977653,3.87919783 L187.977653,0.291602571 L187.235392,0.291602571 L187.235392,3.89687072 C187.235392,5.34604713 188.048345,6.29154637 189.638904,6.29154637 L189.638904,6.29154637 Z M197.971668,6.18550907 L196.381109,3.78199698 C197.185225,3.71130544 197.91865,3.1281003 197.91865,2.06772732 C197.91865,0.98084501 197.141043,0.291602571 196.062997,0.291602571 L193.694831,0.291602571 L193.694831,6.18550907 L194.428255,6.18550907 L194.428255,3.84385207 L195.612339,3.84385207 L197.105697,6.18550907 L197.971668,6.18550907 Z M195.974633,3.19879183 L194.428255,3.19879183 L194.428255,0.945499244 L195.974633,0.945499244 C196.672712,0.945499244 197.158716,1.39615776 197.158716,2.06772732 C197.158716,2.73046043 196.672712,3.19879183 195.974633,3.19879183 L195.974633,3.19879183 Z M204.219033,6.18550907 L204.219033,0.291602571 L203.485608,0.291602571 L203.485608,4.89538861 L200.092414,0.291602571 L199.341317,0.291602571 L199.341317,6.18550907 L200.074742,6.18550907 L200.074742,1.48452218 L203.512117,6.18550907 L204.219033,6.18550907 Z M207.771282,6.29154637 C209.361842,6.29154637 209.945047,5.40790222 209.945047,4.55960383 C209.945047,2.35932989 206.454652,3.11926386 206.454652,1.79379763 C206.454652,1.23710181 206.967166,0.857134829 207.665245,0.857134829 C208.310305,0.857134829 208.928856,1.06920943 209.370678,1.56405015 L209.8125,1.02502722 C209.317659,0.503677167 208.619581,0.194401714 207.7271,0.194401714 C206.56069,0.194401714 205.694718,0.86597127 205.694718,1.83797984 C205.694718,3.94105292 209.185113,3.09275454 209.185113,4.61262248 C209.185113,5.07211744 208.849328,5.6376497 207.797791,5.6376497 C206.967166,5.6376497 206.330942,5.23117339 205.950975,4.78935131 L205.509153,5.35488357 C205.995157,5.90274294 206.755091,6.29154637 207.771282,6.29154637 L207.771282,6.29154637 Z" id="REAL-PEOPLE------REA"></path>
                    </g>
                    <path d="M72.0144196,23.6509325 L76.1192607,9.24078007 L74.7365774,9.24078007 L71.2582647,21.9225783 L67.7367432,9.24078007 L66.6133131,9.24078007 L63.0701871,21.9225783 L59.5918745,9.24078007 L58.2091912,9.24078007 L62.3356366,23.6509325 L63.7183199,23.6509325 L67.1750281,11.2715961 L70.6317364,23.6509325 L72.0144196,23.6509325 Z M84.3505471,23.9101856 C88.5634102,23.9101856 91.3503813,20.6695216 91.3503813,16.4566585 C91.3503813,12.2437953 88.5634102,9.00313138 84.3505471,9.00313138 C80.1160795,9.00313138 77.350713,12.2437953 77.350713,16.4566585 C77.350713,20.6695216 80.1160795,23.9101856 84.3505471,23.9101856 L84.3505471,23.9101856 Z M84.3505471,22.7867554 C80.8722345,22.7867554 78.6469785,20.0862021 78.6469785,16.4566585 C78.6469785,12.8055104 80.8722345,10.1265616 84.3505471,10.1265616 C87.8072553,10.1265616 90.0541157,12.8055104 90.0541157,16.4566585 C90.0541157,20.0862021 87.8072553,22.7867554 84.3505471,22.7867554 L84.3505471,22.7867554 Z M104.334641,23.6509325 L100.164987,17.6016931 C102.32543,17.5152754 104.161806,16.0677788 104.161806,13.4536432 C104.161806,10.8179032 102.260617,9.24078007 99.7761075,9.24078007 L94.3966054,9.24078007 L94.3966054,23.6509325 L95.6280577,23.6509325 L95.6280577,17.6881108 L98.8039083,17.6881108 L102.843936,23.6509325 L104.334641,23.6509325 Z M99.6680854,16.5646806 L95.6280577,16.5646806 L95.6280577,10.3642102 L99.6680854,10.3642102 C101.590879,10.3642102 102.865541,11.6388714 102.865541,13.4536432 C102.865541,15.268415 101.590879,16.5646806 99.6680854,16.5646806 L99.6680854,16.5646806 Z M115.158459,23.6509325 L115.158459,22.5275023 L108.180229,22.5275023 L108.180229,9.24078007 L106.927173,9.24078007 L106.927173,23.6509325 L115.158459,23.6509325 Z M122.28792,23.6509325 C126.760036,23.6509325 129.568612,20.4534774 129.568612,16.4566585 C129.568612,12.5030485 126.760036,9.24078007 122.28792,9.24078007 L117.686177,9.24078007 L117.686177,23.6509325 L122.28792,23.6509325 Z M122.28792,22.5275023 L118.917629,22.5275023 L118.917629,10.3642102 L122.28792,10.3642102 C126.111903,10.3642102 128.272346,13.086368 128.272346,16.4566585 C128.272346,19.826949 126.090299,22.5275023 122.28792,22.5275023 L122.28792,22.5275023 Z M144.994172,23.9101856 C147.284241,23.9101856 148.969386,22.916382 150.265652,21.3392588 L149.207035,20.691126 C148.299649,21.9441828 146.722526,22.7867554 144.994172,22.7867554 C141.623881,22.7867554 138.988141,20.1726198 138.988141,16.4566585 C138.988141,12.6974883 141.623881,10.1265616 144.994172,10.1265616 C146.722526,10.1265616 148.299649,10.9691342 149.207035,12.2221909 L150.244048,11.5524537 C149.0342,10.0185394 147.284241,9.00313138 144.994172,9.00313138 C140.910935,9.00313138 137.691876,12.0277511 137.691876,16.4566585 C137.691876,20.8855659 140.910935,23.9101856 144.994172,23.9101856 L144.994172,23.9101856 Z M158.345707,23.9101856 C162.061669,23.9101856 163.962858,21.6849297 163.962858,18.1201993 L163.962858,9.24078007 L162.709802,9.24078007 L162.709802,18.0985949 C162.709802,21.0151924 161.175887,22.7867554 158.345707,22.7867554 C155.515528,22.7867554 153.981613,21.0151924 153.981613,18.0985949 L153.981613,9.24078007 L152.728557,9.24078007 L152.728557,18.1201993 C152.728557,21.6633252 154.651351,23.9101856 158.345707,23.9101856 L158.345707,23.9101856 Z M168.780645,23.6509325 L168.780645,17.6665064 L172.9503,17.6665064 C175.694062,17.6665064 177.292789,15.722108 177.292789,13.4536432 C177.292789,11.1851784 175.715666,9.24078007 172.9503,9.24078007 L167.549193,9.24078007 L167.549193,23.6509325 L168.780645,23.6509325 Z M172.820673,16.5430762 L168.780645,16.5430762 L168.780645,10.3642102 L172.820673,10.3642102 C174.743467,10.3642102 175.996524,11.6388714 175.996524,13.4536432 C175.996524,15.2468106 174.743467,16.5430762 172.820673,16.5430762 L172.820673,16.5430762 Z M197.341697,23.6509325 L191.443689,9.24078007 L189.909774,9.24078007 L184.011766,23.6509325 L185.437658,23.6509325 L186.86355,20.1078065 L194.489913,20.1078065 L195.915805,23.6509325 L197.341697,23.6509325 Z M194.079429,18.9843764 L187.274034,18.9843764 L190.687534,10.5586501 L194.079429,18.9843764 Z M204.060674,23.6509325 C208.53279,23.6509325 211.341365,20.4534774 211.341365,16.4566585 C211.341365,12.5030485 208.53279,9.24078007 204.060674,9.24078007 L199.458931,9.24078007 L199.458931,23.6509325 L204.060674,23.6509325 Z M204.060674,22.5275023 L200.690383,22.5275023 L200.690383,10.3642102 L204.060674,10.3642102 C207.884657,10.3642102 210.0451,13.086368 210.0451,16.4566585 C210.0451,19.826949 207.863053,22.5275023 204.060674,22.5275023 L204.060674,22.5275023 Z M219.939927,23.6509325 L225.837935,9.24078007 L224.412043,9.24078007 L219.183772,22.2682492 L213.933896,9.24078007 L212.508004,9.24078007 L218.406013,23.6509325 L219.939927,23.6509325 Z M229.186622,23.6509325 L229.186622,9.24078007 L227.955169,9.24078007 L227.955169,23.6509325 L229.186622,23.6509325 Z M237.245073,23.9101856 C241.133869,23.9101856 242.365322,21.6849297 242.365322,19.826949 C242.365322,14.4474468 233.723551,16.4782629 233.723551,12.783906 C233.723551,11.2283873 235.171048,10.1265616 237.093842,10.1265616 C238.714174,10.1265616 240.183275,10.6882766 241.220287,11.9413334 L242.041255,11.0339475 C240.939429,9.7592863 239.297493,9.00313138 237.158655,9.00313138 C234.544519,9.00313138 232.427285,10.4938368 232.427285,12.8487193 C232.427285,17.8825506 241.069056,15.6788991 241.069056,19.9133667 C241.069056,21.144819 240.226483,22.7867554 237.288281,22.7867554 C235.214256,22.7867554 233.701947,21.7497429 232.772956,20.691126 L231.973593,21.6201164 C233.075418,22.9379864 234.868586,23.9101856 237.245073,23.9101856 L237.245073,23.9101856 Z M251.784851,23.9101856 C255.997715,23.9101856 258.784686,20.6695216 258.784686,16.4566585 C258.784686,12.2437953 255.997715,9.00313138 251.784851,9.00313138 C247.550384,9.00313138 244.785017,12.2437953 244.785017,16.4566585 C244.785017,20.6695216 247.550384,23.9101856 251.784851,23.9101856 L251.784851,23.9101856 Z M251.784851,22.7867554 C248.306539,22.7867554 246.081283,20.0862021 246.081283,16.4566585 C246.081283,12.8055104 248.306539,10.1265616 251.784851,10.1265616 C255.24156,10.1265616 257.48842,12.8055104 257.48842,16.4566585 C257.48842,20.0862021 255.24156,22.7867554 251.784851,22.7867554 L251.784851,22.7867554 Z M271.768946,23.6509325 L267.599292,17.6016931 C269.759734,17.5152754 271.59611,16.0677788 271.59611,13.4536432 C271.59611,10.8179032 269.694921,9.24078007 267.210412,9.24078007 L261.83091,9.24078007 L261.83091,23.6509325 L263.062362,23.6509325 L263.062362,17.6881108 L266.238213,17.6881108 L270.27824,23.6509325 L271.768946,23.6509325 Z M267.10239,16.5646806 L263.062362,16.5646806 L263.062362,10.3642102 L267.10239,10.3642102 C269.025184,10.3642102 270.299845,11.6388714 270.299845,13.4536432 C270.299845,15.268415 269.025184,16.5646806 267.10239,16.5646806 L267.10239,16.5646806 Z" id="WORLD-CUP-ADVISOR-Copy"></path>
                </g>
            </g>
        </g>
    </g>
</svg>