<?xml version="1.0" encoding="UTF-8" standalone="no"?>
<svg width="16px" height="12px" viewBox="0 0 16 12" version="1.1" xmlns="http://www.w3.org/2000/svg" xmlns:xlink="http://www.w3.org/1999/xlink" xmlns:sketch="http://www.bohemiancoding.com/sketch/ns">
    <!-- Generator: Sketch 3.3.2 (12043) - http://www.bohemiancoding.com/sketch -->
    <title>mail-footer</title>
    <desc>Created with Sketch.</desc>
    <defs></defs>
    <g id="Anonymous" stroke="none" stroke-width="1" fill="none" fill-rule="evenodd" sketch:type="MSPage">
        <g id="Landing" sketch:type="MSArtboardGroup" transform="translate(-819.000000, -4252.000000)" fill="#58637A">
            <g id="FOOTER" sketch:type="MSLayerGroup" transform="translate(1.000000, 4198.000000)">
                <g id="Contact" transform="translate(137.000000, 49.000000)" sketch:type="MSShapeGroup">
                    <g id="email" transform="translate(681.000000, 1.000000)">
                        <g id="mail-footer" transform="translate(0.000000, 4.000000)">
                            <path d="M16,11.1290667 L16,0.385066667 L10.5285333,5.87626667 L16,11.1290667" id="Fill-211"></path>
                            <path d="M0,0.384266667 L0,11.1290667 L5.47173333,5.876 L0,0.384266667" id="Fill-212"></path>
                            <path d="M0.370133333,0 L5.9704,5.62133333 C6.00293333,5.63493333 6.096,5.732 6.10826667,5.75946667 L7.69253333,7.34986667 C7.86186667,7.5072 8.1384,7.50693333 8.31466667,7.34293333 L9.89093333,5.7608 C9.9032,5.7328 9.9976,5.63466667 10.0301333,5.62106667 L15.6306667,0 L0.370133333,0" id="Fill-213"></path>
                            <path d="M10.152,6.2544 L8.68533333,7.7264 C8.49066667,7.90746667 8.24346667,7.99786667 7.99733333,7.99786667 C7.7536,7.99786667 7.5112,7.90933333 7.32186667,7.73306667 L5.84826667,6.25413333 L0.4184,11.4666667 L15.5816,11.4666667 L10.152,6.2544" id="Fill-214"></path>
                        </g>
                    </g>
                </g>
            </g>
        </g>
    </g>
</svg>