<?xml version="1.0" encoding="UTF-8" standalone="no"?>
<svg width="24px" height="17px" viewBox="0 0 24 17" version="1.1" xmlns="http://www.w3.org/2000/svg" xmlns:xlink="http://www.w3.org/1999/xlink" xmlns:sketch="http://www.bohemiancoding.com/sketch/ns">
    <!-- Generator: Sketch 3.3.2 (12043) - http://www.bohemiancoding.com/sketch -->
    <title>mail field</title>
    <desc>Created with Sketch.</desc>
    <defs></defs>
    <g id="Anonymous" stroke="none" stroke-width="1" fill="none" fill-rule="evenodd" sketch:type="MSPage">
        <g id="Contact" sketch:type="MSArtboardGroup" transform="translate(-802.000000, -551.000000)" fill="#CAD3E6">
            <g id="Form" sketch:type="MSLayerGroup" transform="translate(706.000000, 229.000000)">
                <g id="text-field-copy" transform="translate(82.000000, 292.000000)" sketch:type="MSShapeGroup">
                    <g id="mail-field" transform="translate(14.000000, 30.000000)">
                        <path d="M24,16.4994884 L24,0.570883721 L15.7928,8.71190698 L24,16.4994884" id="Fill-211"></path>
                        <path d="M0,0.569697674 L0,16.4994884 L8.2076,8.71151163 L0,0.569697674" id="Fill-212"></path>
                        <path d="M0.5552,0 L8.9556,8.33395349 C9.0044,8.35411628 9.144,8.49802326 9.1624,8.53874419 L11.5388,10.8966047 C11.7928,11.1298605 12.2076,11.1294651 12.472,10.8863256 L14.8364,8.54072093 C14.8548,8.4992093 14.9964,8.35372093 15.0452,8.33355814 L23.446,0 L0.5552,0" id="Fill-213"></path>
                        <path d="M15.228,9.27251163 L13.028,11.4548372 C12.736,11.7232791 12.3652,11.8573023 11.996,11.8573023 C11.6304,11.8573023 11.2668,11.7260465 10.9828,11.4647209 L8.7724,9.27211628 L0.6276,17 L23.3724,17 L15.228,9.27251163" id="Fill-214"></path>
                    </g>
                </g>
            </g>
        </g>
    </g>
</svg>