<?xml version="1.0" encoding="UTF-8" standalone="no"?>
<svg width="18px" height="14px" viewBox="0 0 18 14" version="1.1" xmlns="http://www.w3.org/2000/svg" xmlns:xlink="http://www.w3.org/1999/xlink" xmlns:sketch="http://www.bohemiancoding.com/sketch/ns">
    <!-- Generator: Sketch 3.3.2 (12043) - http://www.bohemiancoding.com/sketch -->
    <title>mail</title>
    <desc>Created with Sketch.</desc>
    <defs></defs>
    <g id="Anonymous" stroke="none" stroke-width="1" fill="none" fill-rule="evenodd" sketch:type="MSPage">
        <g id="Landing" sketch:type="MSArtboardGroup" transform="translate(-1016.000000, -46.000000)" fill="#CAD3E6">
            <g id="HEADER" sketch:type="MSLayerGroup" transform="translate(56.000000, 24.000000)">
                <g id="mail" transform="translate(960.000000, 22.266667)" sketch:type="MSShapeGroup">
                    <path d="M18,12.3746163 L18,0.428162791 L11.8446,6.53393023 L18,12.3746163" id="Fill-211"></path>
                    <path d="M0,0.427273256 L0,12.3746163 L6.1557,6.53363372 L0,0.427273256" id="Fill-212"></path>
                    <path d="M0.4164,0 L6.7167,6.25046512 C6.7533,6.26558721 6.858,6.37351744 6.8718,6.40405814 L8.6541,8.17245349 C8.8446,8.34739535 9.1557,8.34709884 9.354,8.16474419 L11.1273,6.4055407 C11.1411,6.37440698 11.2473,6.2652907 11.2839,6.2501686 L17.5845,0 L0.4164,0" id="Fill-213"></path>
                    <path d="M11.421,6.95438372 L9.771,8.59112791 C9.552,8.7924593 9.2739,8.89297674 8.997,8.89297674 C8.7228,8.89297674 8.4501,8.79453488 8.2371,8.5985407 L6.5793,6.95408721 L0.4707,12.75 L17.5293,12.75 L11.421,6.95438372" id="Fill-214"></path>
                </g>
            </g>
        </g>
    </g>
</svg>