<?xml version="1.0" encoding="UTF-8" standalone="no"?>
<svg width="16px" height="20px" viewBox="0 0 16 20" version="1.1" xmlns="http://www.w3.org/2000/svg" xmlns:xlink="http://www.w3.org/1999/xlink" xmlns:sketch="http://www.bohemiancoding.com/sketch/ns">
    <!-- Generator: Sketch 3.3.2 (12043) - http://www.bohemiancoding.com/sketch -->
    <title>padlock</title>
    <desc>Created with Sketch.</desc>
    <defs></defs>
    <g id="Anonymous" stroke="none" stroke-width="1" fill="none" fill-rule="evenodd" sketch:type="MSPage">
        <g id="Landing" sketch:type="MSArtboardGroup" transform="translate(-1302.000000, -38.000000)" fill="#1F2E4D">
            <g id="HEADER" sketch:type="MSLayerGroup" transform="translate(56.000000, 24.000000)">
                <g id="login" transform="translate(1225.000000, 0.000000)" sketch:type="MSShapeGroup">
                    <g id="padlock" transform="translate(21.000000, 14.000000)">
                        <path d="M13.374,8.84266667 L2.95066667,8.84266667 L2.95066667,5.38666667 C2.95066667,2.51333333 5.28933333,0.175333333 8.16266667,0.175333333 C11.036,0.175333333 13.374,2.51333333 13.374,5.38666667 L13.374,8.84266667 L13.374,8.84266667 Z M3.61733333,8.176 L12.7073333,8.176 L12.7073333,5.38666667 C12.7073333,2.88066667 10.6686667,0.842 8.16266667,0.842 C5.656,0.842 3.61733333,2.88066667 3.61733333,5.38666667 L3.61733333,8.176 L3.61733333,8.176 Z" id="Fill-1"></path>
                        <path d="M15.108,19.534 L1.21733333,19.534 C0.860666667,19.534 0.570666667,19.244 0.570666667,18.8873333 L0.570666667,8.822 C0.570666667,8.466 0.860666667,8.176 1.21733333,8.176 L15.108,8.176 C15.4646667,8.176 15.7546667,8.466 15.7546667,8.822 L15.7546667,18.8873333 C15.7546667,19.244 15.4646667,19.534 15.108,19.534 L15.108,19.534 Z M15.088,8.822 L1.21733333,8.84266667 L1.23733333,18.8873333 L15.088,18.8673333 L15.088,8.822 L15.088,8.822 Z" id="Fill-2"></path>
                        <path d="M10.228,13.2006667 C10.228,14.3413333 9.30333333,15.2653333 8.16266667,15.2653333 C7.022,15.2653333 6.09733333,14.3413333 6.09733333,13.2006667 C6.09733333,12.06 7.022,11.1353333 8.16266667,11.1353333 C9.30333333,11.1353333 10.228,12.06 10.228,13.2006667" id="Fill-3"></path>
                        <path d="M9.07266667,15.8673333 C9.07266667,16.28 8.66533333,16.6146667 8.16266667,16.6146667 C7.65933333,16.6146667 7.252,16.28 7.252,15.8673333 L7.252,13.476 C7.252,13.0633333 7.65933333,12.7286667 8.16266667,12.7286667 C8.66533333,12.7286667 9.07266667,13.0633333 9.07266667,13.476 L9.07266667,15.8673333" id="Fill-4"></path>
                    </g>
                </g>
            </g>
        </g>
    </g>
</svg>