<?xml version="1.0" encoding="UTF-8" standalone="no"?>
<svg width="19px" height="29px" viewBox="0 0 19 29" version="1.1" xmlns="http://www.w3.org/2000/svg" xmlns:xlink="http://www.w3.org/1999/xlink" xmlns:sketch="http://www.bohemiancoding.com/sketch/ns">
    <!-- Generator: Sketch 3.3.2 (12043) - http://www.bohemiancoding.com/sketch -->
    <title>password field</title>
    <desc>Created with Sketch.</desc>
    <defs></defs>
    <g id="Anonymous" stroke="none" stroke-width="1" fill="none" fill-rule="evenodd" sketch:type="MSPage">
        <g id="Login" sketch:type="MSArtboardGroup" transform="translate(-805.000000, -565.000000)" fill="#CAD3E6">
            <g id="Form" sketch:type="MSLayerGroup" transform="translate(732.000000, 160.000000)">
                <g id="text-field-copy" transform="translate(56.000000, 380.580000)" sketch:type="MSShapeGroup">
                    <g id="password-field" transform="translate(17.000000, 25.000000)">
                        <path d="M14.725,10.2895172 L14.725,4.9337931 C14.725,2.21344828 12.380875,0 9.5,0 C6.619125,0 4.275,2.21344828 4.275,4.9337931 L4.275,10.2895172 C1.7024,12.0187586 0,14.981931 0,18.3448276 C0,23.6686897 4.2617,28 9.5,28 C14.7383,28 19,23.6686897 19,18.3448276 C19,14.981931 17.2976,12.0187586 14.725,10.2895172 L14.725,10.2895172 Z M5.225,9.73096552 L5.225,4.9337931 C5.225,2.74593103 7.142575,0.965517241 9.5,0.965517241 C11.857425,0.965517241 13.775,2.74593103 13.775,4.9337931 L13.775,9.73096552 C13.6857,9.68510345 13.5945,9.64455172 13.50425,9.60158621 C13.317575,9.51275862 13.128525,9.42924138 12.9352,9.35296552 C12.811225,9.30372414 12.686775,9.25737931 12.5609,9.21344828 C12.437875,9.17096552 12.31485,9.12751724 12.18945,9.08986207 C11.981875,9.02662069 11.771925,8.97303448 11.56055,8.92524138 C11.4684,8.90448276 11.376725,8.8842069 11.2841,8.86634483 C11.035675,8.81758621 10.785825,8.778 10.534075,8.74951724 C10.477075,8.74324138 10.4196,8.73937931 10.3626,8.73406897 C10.076175,8.70751724 9.7888,8.68965517 9.5,8.68965517 C9.2112,8.68965517 8.923825,8.70751724 8.6374,8.73406897 C8.5804,8.73937931 8.522925,8.74324138 8.465925,8.74951724 C8.214175,8.778 7.964325,8.81758621 7.7159,8.86634483 C7.623275,8.8842069 7.5316,8.90448276 7.43945,8.92524138 C7.228075,8.97303448 7.018125,9.02662069 6.81055,9.08986207 C6.68515,9.12751724 6.562125,9.17096552 6.4391,9.21344828 C6.313225,9.25737931 6.188775,9.30372414 6.0648,9.35296552 C5.87195,9.42924138 5.682425,9.51275862 5.49575,9.60158621 C5.4055,9.64455172 5.3143,9.68510345 5.225,9.73096552 L5.225,9.73096552 Z M11.4,19.3103448 C11.4,20.3753103 10.54785,21.2413793 9.5,21.2413793 C8.45215,21.2413793 7.6,20.3753103 7.6,19.3103448 L7.6,16.4137931 C7.6,15.3488276 8.45215,14.4827586 9.5,14.4827586 C10.54785,14.4827586 11.4,15.3488276 11.4,16.4137931 L11.4,19.3103448 L11.4,19.3103448 Z" id="Fill-815"></path>
                    </g>
                </g>
            </g>
        </g>
    </g>
</svg>