<?xml version="1.0" encoding="UTF-8" standalone="no"?>
<svg width="42px" height="33px" viewBox="0 0 42 33" version="1.1" xmlns="http://www.w3.org/2000/svg" xmlns:xlink="http://www.w3.org/1999/xlink" xmlns:sketch="http://www.bohemiancoding.com/sketch/ns">
    <!-- Generator: Sketch 3.3.2 (12043) - http://www.bohemiancoding.com/sketch -->
    <title>performance@3x</title>
    <desc>Created with Sketch.</desc>
    <defs></defs>
    <g id="Guest-Account" stroke="none" stroke-width="1" fill="none" fill-rule="evenodd" sketch:type="MSPage">
        <g id="Guest-Account---About" sketch:type="MSArtboardGroup" transform="translate(-853.000000, -277.000000)">
            <g id="Tabs" sketch:type="MSLayerGroup" transform="translate(0.000000, 255.000000)">
                <g id="performance" transform="translate(854.000000, 23.000000)" sketch:type="MSShapeGroup">
                    <path d="M21.3793103,0 L28.2758621,0 L28.2758621,31.3043478 L21.3793103,31.3043478 L21.3793103,0 Z" id="Fill-1" fill="#DAEBF4"></path>
                    <path d="M21.3793103,0 L28.2758621,0 L28.2758621,31.3043478 L21.3793103,31.3043478 L21.3793103,0 Z" id="Stroke-2" stroke="#4198C5" stroke-linecap="round"></path>
                    <path d="M25.5172414,1.39130435 C25.5172414,1.77530435 25.2082759,2.08695652 24.8275862,2.08695652 C24.4468966,2.08695652 24.137931,1.77530435 24.137931,1.39130435 C24.137931,1.00730435 24.4468966,0.695652174 24.8275862,0.695652174 C25.2082759,0.695652174 25.5172414,1.00730435 25.5172414,1.39130435" id="Fill-3" fill="#4198C5"></path>
                    <path d="M25.5172414,5.56521739 C25.5172414,5.94921739 25.2082759,6.26086957 24.8275862,6.26086957 C24.4468966,6.26086957 24.137931,5.94921739 24.137931,5.56521739 C24.137931,5.18121739 24.4468966,4.86956522 24.8275862,4.86956522 C25.2082759,4.86956522 25.5172414,5.18121739 25.5172414,5.56521739" id="Fill-4" fill="#4198C5"></path>
                    <path d="M27.5862069,3.47826087 C27.5862069,3.86226087 27.2772414,4.17391304 26.8965517,4.17391304 C26.5158621,4.17391304 26.2068966,3.86226087 26.2068966,3.47826087 C26.2068966,3.09426087 26.5158621,2.7826087 26.8965517,2.7826087 C27.2772414,2.7826087 27.5862069,3.09426087 27.5862069,3.47826087" id="Fill-5" fill="#4198C5"></path>
                    <path d="M27.5862069,7.65217391 C27.5862069,8.03617391 27.2772414,8.34782609 26.8965517,8.34782609 C26.5158621,8.34782609 26.2068966,8.03617391 26.2068966,7.65217391 C26.2068966,7.26817391 26.5158621,6.95652174 26.8965517,6.95652174 C27.2772414,6.95652174 27.5862069,7.26817391 27.5862069,7.65217391" id="Fill-6" fill="#4198C5"></path>
                    <path d="M23.4482759,3.47826087 C23.4482759,3.86226087 23.1393103,4.17391304 22.7586207,4.17391304 C22.377931,4.17391304 22.0689655,3.86226087 22.0689655,3.47826087 C22.0689655,3.09426087 22.377931,2.7826087 22.7586207,2.7826087 C23.1393103,2.7826087 23.4482759,3.09426087 23.4482759,3.47826087" id="Fill-7" fill="#4198C5"></path>
                    <path d="M23.4482759,7.65217391 C23.4482759,8.03617391 23.1393103,8.34782609 22.7586207,8.34782609 C22.377931,8.34782609 22.0689655,8.03617391 22.0689655,7.65217391 C22.0689655,7.26817391 22.377931,6.95652174 22.7586207,6.95652174 C23.1393103,6.95652174 23.4482759,7.26817391 23.4482759,7.65217391" id="Fill-8" fill="#4198C5"></path>
                    <path d="M25.5172414,9.73913043 C25.5172414,10.1231304 25.2082759,10.4347826 24.8275862,10.4347826 C24.4468966,10.4347826 24.137931,10.1231304 24.137931,9.73913043 C24.137931,9.35513043 24.4468966,9.04347826 24.8275862,9.04347826 C25.2082759,9.04347826 25.5172414,9.35513043 25.5172414,9.73913043" id="Fill-9" fill="#4198C5"></path>
                    <path d="M25.5172414,13.9130435 C25.5172414,14.2970435 25.2082759,14.6086957 24.8275862,14.6086957 C24.4468966,14.6086957 24.137931,14.2970435 24.137931,13.9130435 C24.137931,13.5290435 24.4468966,13.2173913 24.8275862,13.2173913 C25.2082759,13.2173913 25.5172414,13.5290435 25.5172414,13.9130435" id="Fill-10" fill="#4198C5"></path>
                    <path d="M27.5862069,11.826087 C27.5862069,12.210087 27.2772414,12.5217391 26.8965517,12.5217391 C26.5158621,12.5217391 26.2068966,12.210087 26.2068966,11.826087 C26.2068966,11.442087 26.5158621,11.1304348 26.8965517,11.1304348 C27.2772414,11.1304348 27.5862069,11.442087 27.5862069,11.826087" id="Fill-11" fill="#4198C5"></path>
                    <path d="M27.5862069,16 C27.5862069,16.384 27.2772414,16.6956522 26.8965517,16.6956522 C26.5158621,16.6956522 26.2068966,16.384 26.2068966,16 C26.2068966,15.616 26.5158621,15.3043478 26.8965517,15.3043478 C27.2772414,15.3043478 27.5862069,15.616 27.5862069,16" id="Fill-12" fill="#4198C5"></path>
                    <path d="M23.4482759,11.826087 C23.4482759,12.210087 23.1393103,12.5217391 22.7586207,12.5217391 C22.377931,12.5217391 22.0689655,12.210087 22.0689655,11.826087 C22.0689655,11.442087 22.377931,11.1304348 22.7586207,11.1304348 C23.1393103,11.1304348 23.4482759,11.442087 23.4482759,11.826087" id="Fill-13" fill="#4198C5"></path>
                    <path d="M23.4482759,16 C23.4482759,16.384 23.1393103,16.6956522 22.7586207,16.6956522 C22.377931,16.6956522 22.0689655,16.384 22.0689655,16 C22.0689655,15.616 22.377931,15.3043478 22.7586207,15.3043478 C23.1393103,15.3043478 23.4482759,15.616 23.4482759,16" id="Fill-14" fill="#4198C5"></path>
                    <path d="M25.5172414,18.0869565 C25.5172414,18.4709565 25.2082759,18.7826087 24.8275862,18.7826087 C24.4468966,18.7826087 24.137931,18.4709565 24.137931,18.0869565 C24.137931,17.7029565 24.4468966,17.3913043 24.8275862,17.3913043 C25.2082759,17.3913043 25.5172414,17.7029565 25.5172414,18.0869565" id="Fill-15" fill="#4198C5"></path>
                    <path d="M25.5172414,22.2608696 C25.5172414,22.6448696 25.2082759,22.9565217 24.8275862,22.9565217 C24.4468966,22.9565217 24.137931,22.6448696 24.137931,22.2608696 C24.137931,21.8768696 24.4468966,21.5652174 24.8275862,21.5652174 C25.2082759,21.5652174 25.5172414,21.8768696 25.5172414,22.2608696" id="Fill-16" fill="#4198C5"></path>
                    <path d="M27.5862069,20.173913 C27.5862069,20.557913 27.2772414,20.8695652 26.8965517,20.8695652 C26.5158621,20.8695652 26.2068966,20.557913 26.2068966,20.173913 C26.2068966,19.789913 26.5158621,19.4782609 26.8965517,19.4782609 C27.2772414,19.4782609 27.5862069,19.789913 27.5862069,20.173913" id="Fill-17" fill="#4198C5"></path>
                    <path d="M27.5862069,24.3478261 C27.5862069,24.7318261 27.2772414,25.0434783 26.8965517,25.0434783 C26.5158621,25.0434783 26.2068966,24.7318261 26.2068966,24.3478261 C26.2068966,23.9638261 26.5158621,23.6521739 26.8965517,23.6521739 C27.2772414,23.6521739 27.5862069,23.9638261 27.5862069,24.3478261" id="Fill-18" fill="#4198C5"></path>
                    <path d="M23.4482759,20.173913 C23.4482759,20.557913 23.1393103,20.8695652 22.7586207,20.8695652 C22.377931,20.8695652 22.0689655,20.557913 22.0689655,20.173913 C22.0689655,19.789913 22.377931,19.4782609 22.7586207,19.4782609 C23.1393103,19.4782609 23.4482759,19.789913 23.4482759,20.173913" id="Fill-19" fill="#4198C5"></path>
                    <path d="M23.4482759,24.3478261 C23.4482759,24.7318261 23.1393103,25.0434783 22.7586207,25.0434783 C22.377931,25.0434783 22.0689655,24.7318261 22.0689655,24.3478261 C22.0689655,23.9638261 22.377931,23.6521739 22.7586207,23.6521739 C23.1393103,23.6521739 23.4482759,23.9638261 23.4482759,24.3478261" id="Fill-20" fill="#4198C5"></path>
                    <path d="M25.5172414,26.4347826 C25.5172414,26.8187826 25.2082759,27.1304348 24.8275862,27.1304348 C24.4468966,27.1304348 24.137931,26.8187826 24.137931,26.4347826 C24.137931,26.0507826 24.4468966,25.7391304 24.8275862,25.7391304 C25.2082759,25.7391304 25.5172414,26.0507826 25.5172414,26.4347826" id="Fill-21" fill="#4198C5"></path>
                    <path d="M25.5172414,30.6086957 C25.5172414,30.9926957 25.2082759,31.3043478 24.8275862,31.3043478 C24.4468966,31.3043478 24.137931,30.9926957 24.137931,30.6086957 C24.137931,30.2246957 24.4468966,29.9130435 24.8275862,29.9130435 C25.2082759,29.9130435 25.5172414,30.2246957 25.5172414,30.6086957" id="Fill-22" fill="#4198C5"></path>
                    <path d="M27.5862069,28.5217391 C27.5862069,28.9057391 27.2772414,29.2173913 26.8965517,29.2173913 C26.5158621,29.2173913 26.2068966,28.9057391 26.2068966,28.5217391 C26.2068966,28.1377391 26.5158621,27.826087 26.8965517,27.826087 C27.2772414,27.826087 27.5862069,28.1377391 27.5862069,28.5217391" id="Fill-23" fill="#4198C5"></path>
                    <path d="M23.4482759,28.5217391 C23.4482759,28.9057391 23.1393103,29.2173913 22.7586207,29.2173913 C22.377931,29.2173913 22.0689655,28.9057391 22.0689655,28.5217391 C22.0689655,28.1377391 22.377931,27.826087 22.7586207,27.826087 C23.1393103,27.826087 23.4482759,28.1377391 23.4482759,28.5217391" id="Fill-24" fill="#4198C5"></path>
                    <path d="M40,31 L0,31" id="Stroke-43" stroke="#4198C5" stroke-linecap="round"></path>
                    <path d="M11.0344828,21.5652174 L17.9310345,21.5652174 L17.9310345,31.3043478 L11.0344828,31.3043478 L11.0344828,21.5652174 Z" id="Fill-44" fill="#FFFFFF"></path>
                    <path d="M11.0344828,21.5652174 L17.9310345,21.5652174 L17.9310345,31.3043478 L11.0344828,31.3043478 L11.0344828,21.5652174 Z" id="Stroke-45" stroke="#4198C5" stroke-linecap="round"></path>
                    <path d="M0.689655172,15.3043478 L7.5862069,15.3043478 L7.5862069,31.3043478 L0.689655172,31.3043478 L0.689655172,15.3043478 Z" id="Fill-46" fill="#FFFFFF"></path>
                    <path d="M0.689655172,15.3043478 L7.5862069,15.3043478 L7.5862069,31.3043478 L0.689655172,31.3043478 L0.689655172,15.3043478 Z" id="Stroke-47" stroke="#4198C5" stroke-linecap="round"></path>
                    <path d="M31.7241379,5.56521739 L38.6206897,5.56521739 L38.6206897,31.3043478 L31.7241379,31.3043478 L31.7241379,5.56521739 Z" id="Fill-48" fill="#FFFFFF"></path>
                    <path d="M31.7241379,5.56521739 L38.6206897,5.56521739 L38.6206897,31.3043478 L31.7241379,31.3043478 L31.7241379,5.56521739 Z" id="Stroke-49" stroke="#4198C5" stroke-linecap="round"></path>
                </g>
            </g>
        </g>
    </g>
</svg>