<?xml version="1.0" encoding="UTF-8" standalone="no"?>
<svg width="21px" height="21px" viewBox="0 0 21 21" version="1.1" xmlns="http://www.w3.org/2000/svg" xmlns:xlink="http://www.w3.org/1999/xlink" xmlns:sketch="http://www.bohemiancoding.com/sketch/ns">
    <!-- Generator: Sketch 3.3.2 (12043) - http://www.bohemiancoding.com/sketch -->
    <title>phone field</title>
    <desc>Created with Sketch.</desc>
    <defs></defs>
    <g id="Anonymous" stroke="none" stroke-width="1" fill="none" fill-rule="evenodd" sketch:type="MSPage">
        <g id="Contact" sketch:type="MSArtboardGroup" transform="translate(-804.000000, -657.000000)" fill="#CAD3E6">
            <g id="Form" sketch:type="MSLayerGroup" transform="translate(706.000000, 229.000000)">
                <g id="text-field-copy-2" transform="translate(82.000000, 400.000000)" sketch:type="MSShapeGroup">
                    <g id="phone-field" transform="translate(16.000000, 28.000000)">
                        <path d="M19.8142,1.5995 C19.6777,1.46265 19.45615,1.46265 19.3193,1.5995 C19.1828,1.736 19.1828,1.95755 19.3193,2.09405 C20.62725,3.402 20.62725,5.52965 19.3193,6.83725 C19.1828,6.9741 19.1828,7.19565 19.3193,7.33215 C19.3879,7.40075 19.47715,7.4347 19.56675,7.4347 C19.65635,7.4347 19.74595,7.40075 19.8142,7.33215 C21.3948,5.7519 21.3948,3.17975 19.8142,1.5995" id="Fill-1315"></path>
                        <path d="M18.34035,2.39575 C18.20385,2.2589 17.9823,2.2589 17.84545,2.39575 C17.70895,2.53225 17.70895,2.7538 17.84545,2.89065 C18.27875,3.3236 18.51675,3.9004 18.51675,4.51395 C18.51675,5.12785 18.27875,5.70465 17.84545,6.13725 C17.70895,6.2741 17.70895,6.49565 17.84545,6.63215 C17.91405,6.70075 18.0033,6.7347 18.0929,6.7347 C18.1825,6.7347 18.2721,6.70075 18.34035,6.63215 C18.90595,6.06725 19.21675,5.31475 19.21675,4.51395 C19.21675,3.71315 18.90595,2.96065 18.34035,2.39575" id="Fill-1316"></path>
                        <path d="M1.6807,2.09405 C1.8172,1.95755 1.8172,1.736 1.6807,1.5995 C1.54385,1.46265 1.3223,1.46265 1.1858,1.5995 C-0.3948,3.17975 -0.3948,5.7519 1.1858,7.33215 C1.25405,7.40075 1.34365,7.4347 1.43325,7.4347 C1.52285,7.4347 1.6121,7.40075 1.6807,7.33215 C1.8172,7.19565 1.8172,6.9741 1.6807,6.83725 C0.37275,5.52965 0.37275,3.402 1.6807,2.09405" id="Fill-1317"></path>
                        <path d="M3.15455,2.29915 C3.0177,2.16265 2.79615,2.16265 2.65965,2.29915 C2.09405,2.8644 1.78325,3.61655 1.78325,4.41735 C1.78325,5.21815 2.09405,5.97065 2.65965,6.5359 C2.7279,6.60415 2.8175,6.63845 2.9071,6.63845 C2.9967,6.63845 3.08595,6.60415 3.15455,6.5359 C3.29105,6.39905 3.29105,6.1775 3.15455,6.041 C2.72125,5.6077 2.48325,5.03125 2.48325,4.41735 C2.48325,3.80345 2.72125,3.22665 3.15455,2.79405 C3.29105,2.65755 3.29105,2.436 3.15455,2.29915" id="Fill-1318"></path>
                        <path d="M10.5,17.85 C10.11395,17.85 9.8,18.16395 9.8,18.55 C9.8,18.9357 10.11395,19.25 10.5,19.25 C10.88605,19.25 11.2,18.9357 11.2,18.55 C11.2,18.16395 10.88605,17.85 10.5,17.85" id="Fill-1319"></path>
                        <path d="M14.90825,3.55271368e-15 L6.09175,3.55271368e-15 C5.2416,3.55271368e-15 4.55,0.69195 4.55,1.5421 L4.55,19.45825 C4.55,20.30805 5.2416,21 6.09175,21 L14.90825,21 C15.7584,21 16.45,20.30805 16.45,19.45825 L16.45,1.5421 C16.45,0.69195 15.7584,3.55271368e-15 14.90825,3.55271368e-15 L14.90825,3.55271368e-15 Z M11.55,1.05 L11.9,1.05 C12.0932,1.05 12.25,1.20645 12.25,1.4 C12.25,1.59355 12.0932,1.75 11.9,1.75 L11.55,1.75 C11.3568,1.75 11.2,1.59355 11.2,1.4 C11.2,1.20645 11.3568,1.05 11.55,1.05 L11.55,1.05 Z M9.1,1.05 L10.5,1.05 C10.6932,1.05 10.85,1.20645 10.85,1.4 C10.85,1.59355 10.6932,1.75 10.5,1.75 L9.1,1.75 C8.9068,1.75 8.75,1.59355 8.75,1.4 C8.75,1.20645 8.9068,1.05 9.1,1.05 L9.1,1.05 Z M10.5,19.95 C9.7279,19.95 9.1,19.3221 9.1,18.55 C9.1,17.7779 9.7279,17.15 10.5,17.15 C11.2721,17.15 11.9,17.7779 11.9,18.55 C11.9,19.3221 11.2721,19.95 10.5,19.95 L10.5,19.95 Z M5.25,2.8 L15.75,2.8 L15.75,16.1 L5.25,16.1 L5.25,2.8 Z" id="Fill-1320"></path>
                    </g>
                </g>
            </g>
        </g>
    </g>
</svg>