<?xml version="1.0" encoding="UTF-8" standalone="no"?>
<svg width="60px" height="59px" viewBox="0 0 60 59" version="1.1" xmlns="http://www.w3.org/2000/svg" xmlns:xlink="http://www.w3.org/1999/xlink" xmlns:sketch="http://www.bohemiancoding.com/sketch/ns">
    <!-- Generator: Sketch 3.3.2 (12043) - http://www.bohemiancoding.com/sketch -->
    <title>premise</title>
    <desc>Created with Sketch.</desc>
    <defs></defs>
    <g id="Anonymous" stroke="none" stroke-width="1" fill="none" fill-rule="evenodd" sketch:type="MSPage">
        <g id="Landing" sketch:type="MSArtboardGroup" transform="translate(-122.000000, -2426.000000)">
            <g id="How-it-Works" sketch:type="MSLayerGroup" transform="translate(0.000000, 2168.000000)">
                <g id="Premise" transform="translate(81.000000, 219.000000)" sketch:type="MSShapeGroup">
                    <g id="premise" transform="translate(42.000000, 40.000000)">
                        <path d="M7.66037736,8.76923077 L58,8.76923077 L58,57 L7.66037736,57 L7.66037736,8.76923077 Z" id="Fill-364" fill="#DAEBF4"></path>
                        <path d="M7.66037736,8.76923077 L58,8.76923077 L58,57 L7.66037736,57 L7.66037736,8.76923077 Z" id="Stroke-365" stroke="#4198C5" stroke-width="2" stroke-linejoin="round"></path>
                        <path d="M7.66037736,8.76923077 L51.4339623,8.76923077 L51.4339623,0 L0,0 L0,49.3269231 L7.66037736,49.3269231 L7.66037736,8.76923077 L7.66037736,8.76923077 Z" id="Fill-366" fill="#FFFFFF"></path>
                        <path d="M7.66037736,8.76923077 L51.4339623,8.76923077 L51.4339623,0 L0,0 L0,49.3269231 L7.66037736,49.3269231 L7.66037736,8.76923077 L7.66037736,8.76923077 Z" id="Stroke-367" stroke="#4198C5" stroke-width="2" stroke-linejoin="round"></path>
                        <path d="M32.8301887,20.8269231 L32.8301887,44.9423077 M44.8679245,32.8846154 L20.7924528,32.8846154" id="Stroke-368" stroke="#4198C5" stroke-width="2" stroke-linecap="round" stroke-linejoin="round"></path>
                    </g>
                </g>
            </g>
        </g>
    </g>
</svg>