<?xml version="1.0" encoding="UTF-8" standalone="no"?>
<svg width="17px" height="18px" viewBox="0 0 17 18" version="1.1" xmlns="http://www.w3.org/2000/svg" xmlns:xlink="http://www.w3.org/1999/xlink" xmlns:sketch="http://www.bohemiancoding.com/sketch/ns">
    <!-- Generator: Sketch 3.3.2 (12043) - http://www.bohemiancoding.com/sketch -->
    <title>ringing-phone</title>
    <desc>Created with Sketch.</desc>
    <defs></defs>
    <g id="Anonymous" stroke="none" stroke-width="1" fill="none" fill-rule="evenodd" sketch:type="MSPage">
        <g id="Landing" sketch:type="MSArtboardGroup" transform="translate(-512.000000, -4250.000000)" fill="#58637A">
            <g id="FOOTER" sketch:type="MSLayerGroup" transform="translate(1.000000, 4198.000000)">
                <g id="Contact" transform="translate(137.000000, 49.000000)" sketch:type="MSShapeGroup">
                    <g id="phone" transform="translate(374.000000, 2.000000)">
                        <g id="ringing-phone" transform="translate(0.000000, 1.000000)">
                            <path d="M16.0400667,1.30868182 C15.9295667,1.19671364 15.7502167,1.19671364 15.6394333,1.30868182 C15.5289333,1.42036364 15.5289333,1.60163182 15.6394333,1.71331364 C16.69825,2.78345455 16.69825,4.52425909 15.6394333,5.59411364 C15.5289333,5.70608182 15.5289333,5.88735 15.6394333,5.99903182 C15.6949667,6.05515909 15.7672167,6.08293636 15.83975,6.08293636 C15.9122833,6.08293636 15.9848167,6.05515909 16.0400667,5.99903182 C17.3196,4.7061 17.3196,2.60161364 16.0400667,1.30868182" id="Fill-1315"></path>
                            <path d="M14.84695,1.96015909 C14.73645,1.84819091 14.5571,1.84819091 14.4463167,1.96015909 C14.3358167,2.07184091 14.3358167,2.25310909 14.4463167,2.36507727 C14.7970833,2.71930909 14.98975,3.19123636 14.98975,3.69323182 C14.98975,4.19551364 14.7970833,4.66744091 14.4463167,5.02138636 C14.3358167,5.13335455 14.3358167,5.31462273 14.4463167,5.42630455 C14.50185,5.48243182 14.5741,5.51020909 14.6466333,5.51020909 C14.7191667,5.51020909 14.7917,5.48243182 14.84695,5.42630455 C15.3048167,4.96411364 15.5564167,4.34843182 15.5564167,3.69323182 C15.5564167,3.03803182 15.3048167,2.42235 14.84695,1.96015909" id="Fill-1316"></path>
                            <path d="M1.36056667,1.71331364 C1.47106667,1.60163182 1.47106667,1.42036364 1.36056667,1.30868182 C1.24978333,1.19671364 1.07043333,1.19671364 0.959933333,1.30868182 C-0.3196,2.60161364 -0.3196,4.7061 0.959933333,5.99903182 C1.01518333,6.05515909 1.08771667,6.08293636 1.16025,6.08293636 C1.23278333,6.08293636 1.30503333,6.05515909 1.36056667,5.99903182 C1.47106667,5.88735 1.47106667,5.70608182 1.36056667,5.59411364 C0.30175,4.52425909 0.30175,2.78345455 1.36056667,1.71331364" id="Fill-1317"></path>
                            <path d="M2.55368333,1.88112273 C2.4429,1.76944091 2.26355,1.76944091 2.15305,1.88112273 C1.69518333,2.3436 1.44358333,2.95899545 1.44358333,3.61419545 C1.44358333,4.26939545 1.69518333,4.88507727 2.15305,5.34755455 C2.2083,5.40339545 2.28083333,5.43145909 2.35336667,5.43145909 C2.4259,5.43145909 2.49815,5.40339545 2.55368333,5.34755455 C2.66418333,5.23558636 2.66418333,5.05431818 2.55368333,4.94263636 C2.20291667,4.58811818 2.01025,4.11647727 2.01025,3.61419545 C2.01025,3.11191364 2.20291667,2.63998636 2.55368333,2.28604091 C2.66418333,2.17435909 2.66418333,1.99309091 2.55368333,1.88112273" id="Fill-1318"></path>
                            <path d="M8.5,14.6045455 C8.18748333,14.6045455 7.93333333,14.8614136 7.93333333,15.1772727 C7.93333333,15.4928455 8.18748333,15.75 8.5,15.75 C8.81251667,15.75 9.06666667,15.4928455 9.06666667,15.1772727 C9.06666667,14.8614136 8.81251667,14.6045455 8.5,14.6045455" id="Fill-1319"></path>
                            <path d="M12.0685833,0 L4.93141667,0 C4.2432,0 3.68333333,0.566140909 3.68333333,1.26171818 L3.68333333,15.9203864 C3.68333333,16.6156773 4.2432,17.1818182 4.93141667,17.1818182 L12.0685833,17.1818182 C12.7568,17.1818182 13.3166667,16.6156773 13.3166667,15.9203864 L13.3166667,1.26171818 C13.3166667,0.566140909 12.7568,0 12.0685833,0 L12.0685833,0 Z M9.35,0.859090909 L9.63333333,0.859090909 C9.78973333,0.859090909 9.91666667,0.987095455 9.91666667,1.14545455 C9.91666667,1.30381364 9.78973333,1.43181818 9.63333333,1.43181818 L9.35,1.43181818 C9.1936,1.43181818 9.06666667,1.30381364 9.06666667,1.14545455 C9.06666667,0.987095455 9.1936,0.859090909 9.35,0.859090909 L9.35,0.859090909 Z M7.36666667,0.859090909 L8.5,0.859090909 C8.6564,0.859090909 8.78333333,0.987095455 8.78333333,1.14545455 C8.78333333,1.30381364 8.6564,1.43181818 8.5,1.43181818 L7.36666667,1.43181818 C7.21026667,1.43181818 7.08333333,1.30381364 7.08333333,1.14545455 C7.08333333,0.987095455 7.21026667,0.859090909 7.36666667,0.859090909 L7.36666667,0.859090909 Z M8.5,16.3227273 C7.87496667,16.3227273 7.36666667,15.8089909 7.36666667,15.1772727 C7.36666667,14.5455545 7.87496667,14.0318182 8.5,14.0318182 C9.12503333,14.0318182 9.63333333,14.5455545 9.63333333,15.1772727 C9.63333333,15.8089909 9.12503333,16.3227273 8.5,16.3227273 L8.5,16.3227273 Z M4.25,2.29090909 L12.75,2.29090909 L12.75,13.1727273 L4.25,13.1727273 L4.25,2.29090909 Z" id="Fill-1320"></path>
                        </g>
                    </g>
                </g>
            </g>
        </g>
    </g>
</svg>