<?xml version="1.0" encoding="UTF-8" standalone="no"?>
<svg width="62px" height="57px" viewBox="0 0 62 57" version="1.1" xmlns="http://www.w3.org/2000/svg" xmlns:xlink="http://www.w3.org/1999/xlink" xmlns:sketch="http://www.bohemiancoding.com/sketch/ns">
    <!-- Generator: Sketch 3.3.2 (12043) - http://www.bohemiancoding.com/sketch -->
    <title>select-search</title>
    <desc>Created with Sketch.</desc>
    <defs></defs>
    <g id="Anonymous" stroke="none" stroke-width="1" fill="none" fill-rule="evenodd" sketch:type="MSPage">
        <g id="Landing" sketch:type="MSArtboardGroup" transform="translate(-927.000000, -2430.000000)">
            <g id="How-it-Works" sketch:type="MSLayerGroup" transform="translate(0.000000, 2168.000000)">
                <g id="Search" transform="translate(895.000000, 219.000000)" sketch:type="MSShapeGroup">
                    <g id="select-search" transform="translate(33.000000, 44.000000)">
                        <path d="M25.3549258,42.1276596 C25.3549258,49.2367021 19.6788799,55 12.6774629,55 C5.67604588,55 0,49.2367021 0,42.1276596 C0,35.018617 5.67604588,29.2553191 12.6774629,29.2553191 C19.6788799,29.2553191 25.3549258,35.018617 25.3549258,42.1276596 L25.3549258,42.1276596 Z" id="Fill-162" fill="#DAEBF4"></path>
                        <path d="M25.3549258,42.1276596 C25.3549258,49.2367021 19.6788799,55 12.6774629,55 C5.67604588,55 0,49.2367021 0,42.1276596 C0,35.018617 5.67604588,29.2553191 12.6774629,29.2553191 C19.6788799,29.2553191 25.3549258,35.018617 25.3549258,42.1276596 L25.3549258,42.1276596 Z" id="Stroke-163" stroke="#4198C5" stroke-width="2" stroke-linecap="round" stroke-linejoin="round"></path>
                        <path d="M25.3549258,42.6425532 L25.3549258,42.1276596 C25.3549258,42.3020213 25.3364858,42.4705319 25.3295709,42.6425532 L25.3549258,42.6425532 L25.3549258,42.6425532 Z" id="Fill-164" fill="#FFFFFF"></path>
                        <path d="M25.3549258,42.6425532 L25.3549258,42.1276596 C25.3549258,42.3020213 25.3364858,42.4705319 25.3295709,42.6425532 L25.3549258,42.6425532 L25.3549258,42.6425532 Z" id="Stroke-165" stroke="#4198C5" stroke-width="2" stroke-linecap="round" stroke-linejoin="round"></path>
                        <path d="M16.4392119,0.430638298 C12.5864157,0.607340426 9.39054251,3.54808511 8.47661269,7.35244681 L1.64230769,35.8038298 C3.81937382,31.8976596 7.94185425,29.2553191 12.6774629,29.2553191 C19.6788799,29.2553191 25.3549258,35.018617 25.3549258,42.1276596 L25.3549258,9.07382979 C25.3549258,4.16244681 21.3246451,0.20712766 16.4392119,0.430638298 L16.4392119,0.430638298 Z" id="Fill-166" fill="#FFFFFF"></path>
                        <path d="M16.4392119,0.430638298 C12.5864157,0.607340426 9.39054251,3.54808511 8.47661269,7.35244681 L1.64230769,35.8038298 C3.81937382,31.8976596 7.94185425,29.2553191 12.6774629,29.2553191 C19.6788799,29.2553191 25.3549258,35.018617 25.3549258,42.1276596 L25.3549258,9.07382979 C25.3549258,4.16244681 21.3246451,0.20712766 16.4392119,0.430638298 L16.4392119,0.430638298 Z" id="Stroke-167" stroke="#4198C5" stroke-width="2" stroke-linecap="round" stroke-linejoin="round"></path>
                        <path d="M25.3549258,15.212766 L34.5748988,15.212766 L34.5748988,30.4255319 L25.3549258,30.4255319 L25.3549258,15.212766 Z" id="Fill-168" fill="#FFFFFF"></path>
                        <path d="M25.3549258,15.212766 L34.5748988,15.212766 L34.5748988,30.4255319 L25.3549258,30.4255319 L25.3549258,15.212766 Z" id="Stroke-169" stroke="#4198C5" stroke-width="2" stroke-linecap="round" stroke-linejoin="round"></path>
                        <path d="M34.5748988,42.1276596 C34.5748988,49.2367021 40.2509447,55 47.2523617,55 C54.2537787,55 59.9298246,49.2367021 59.9298246,42.1276596 C59.9298246,35.018617 54.2537787,29.2553191 47.2523617,29.2553191 C40.2509447,29.2553191 34.5748988,35.018617 34.5748988,42.1276596 L34.5748988,42.1276596 Z" id="Fill-170" fill="#DAEBF4"></path>
                        <path d="M34.5748988,42.1276596 C34.5748988,49.2367021 40.2509447,55 47.2523617,55 C54.2537787,55 59.9298246,49.2367021 59.9298246,42.1276596 C59.9298246,35.018617 54.2537787,29.2553191 47.2523617,29.2553191 C40.2509447,29.2553191 34.5748988,35.018617 34.5748988,42.1276596 L34.5748988,42.1276596 Z" id="Stroke-171" stroke="#4198C5" stroke-width="2" stroke-linecap="round" stroke-linejoin="round"></path>
                        <path d="M34.5748988,42.6425532 L34.5748988,42.1276596 C34.5748988,42.3020213 34.5933387,42.4705319 34.6002537,42.6425532 L34.5748988,42.6425532 L34.5748988,42.6425532 Z" id="Fill-172" fill="#DAEBF4"></path>
                        <path d="M34.5748988,42.6425532 L34.5748988,42.1276596 C34.5748988,42.3020213 34.5933387,42.4705319 34.6002537,42.6425532 L34.5748988,42.6425532 L34.5748988,42.6425532 Z" id="Stroke-173" stroke="#4198C5" stroke-width="2" stroke-linecap="round" stroke-linejoin="round"></path>
                        <path d="M43.4906127,0.430638298 C47.3422564,0.607340426 50.5392821,3.54808511 51.4532119,7.35244681 L58.2875169,35.8038298 C56.1104507,31.8976596 51.9879703,29.2553191 47.2523617,29.2553191 C40.2509447,29.2553191 34.5748988,35.018617 34.5748988,42.1276596 L34.5748988,9.07382979 C34.5748988,4.16244681 38.6051795,0.20712766 43.4906127,0.430638298 L43.4906127,0.430638298 Z" id="Fill-174" fill="#FFFFFF"></path>
                        <path d="M43.4906127,0.430638298 C47.3422564,0.607340426 50.5392821,3.54808511 51.4532119,7.35244681 L58.2875169,35.8038298 C56.1104507,31.8976596 51.9879703,29.2553191 47.2523617,29.2553191 C40.2509447,29.2553191 34.5748988,35.018617 34.5748988,42.1276596 L34.5748988,9.07382979 C34.5748988,4.16244681 38.6051795,0.20712766 43.4906127,0.430638298 L43.4906127,0.430638298 Z" id="Stroke-175" stroke="#4198C5" stroke-width="2" stroke-linecap="round" stroke-linejoin="round"></path>
                    </g>
                </g>
            </g>
        </g>
    </g>
</svg>