<?xml version="1.0" encoding="UTF-8" standalone="no"?>
<svg width="21px" height="17px" viewBox="0 0 21 17" version="1.1" xmlns="http://www.w3.org/2000/svg" xmlns:xlink="http://www.w3.org/1999/xlink" xmlns:sketch="http://www.bohemiancoding.com/sketch/ns">
    <!-- Generator: Sketch 3.3.2 (12043) - http://www.bohemiancoding.com/sketch -->
    <title>sort@3x</title>
    <desc>Created with Sketch.</desc>
    <defs></defs>
    <g id="Guest-Account" stroke="none" stroke-width="1" fill="none" fill-rule="evenodd" sketch:type="MSPage">
        <g id="Guest-Account---List" sketch:type="MSArtboardGroup" transform="translate(-305.000000, -128.000000)" fill="#DAEBF4">
            <g id="Sort" sketch:type="MSLayerGroup" transform="translate(0.000000, 100.000000)">
                <g id="Title" transform="translate(305.000000, 28.000000)" sketch:type="MSShapeGroup">
                    <g id="sort">
                        <path d="M8.86708197,11.3482 L5.7704918,14.4964 L5.7704918,2.33333333 C5.7704918,1.92853333 5.44734426,1.6 5.04918033,1.6 C4.65101639,1.6 4.32786885,1.92853333 4.32786885,2.33333333 L4.32786885,14.4964 L1.23127869,11.3482 C0.949967213,11.0618333 0.492655738,11.0618333 0.211344262,11.3482 C-0.0703278689,11.6345667 -0.0703278689,12.0987667 0.211344262,12.3851333 L4.53885246,16.7847667 C4.57239344,16.8188667 4.60954098,16.8493 4.64921311,16.8764333 C4.66688525,16.8885333 4.68636066,16.8969667 4.70511475,16.9072333 C4.72747541,16.9197 4.74947541,16.9336333 4.77327869,16.9439 C4.79708197,16.9538 4.82196721,16.9596667 4.8464918,16.967 C4.86704918,16.9732333 4.88652459,16.9813 4.90780328,16.9853333 C4.95468852,16.9948667 5.00193443,17 5.04918033,17 C5.09642623,17 5.14367213,16.9948667 5.19055738,16.9853333 C5.21183607,16.9813 5.23131148,16.9732333 5.25186885,16.967 C5.27639344,16.9596667 5.30127869,16.9538 5.32508197,16.9439 C5.34888525,16.9336333 5.37088525,16.9197 5.3932459,16.9072333 C5.412,16.8969667 5.43147541,16.8885333 5.44914754,16.8764333 C5.48881967,16.8493 5.52596721,16.8188667 5.5595082,16.7847667 L9.88701639,12.3851333 C10.1686885,12.0987667 10.1686885,11.6345667 9.88701639,11.3482 C9.60570492,11.0618333 9.14839344,11.0618333 8.86708197,11.3482" id="Fill-236"></path>
                        <path d="M20.7886557,4.61486667 L16.4611475,0.215233333 C16.4276066,0.181133333 16.390459,0.150333333 16.3507869,0.123566667 C16.3327541,0.1111 16.312918,0.102666667 16.2941639,0.0920333333 C16.2718033,0.0795666667 16.2505246,0.066 16.2267213,0.0561 C16.2025574,0.0458333333 16.1776721,0.0399666667 16.1527869,0.0326333333 C16.1325902,0.0267666667 16.1131148,0.0187 16.0921967,0.0143 C15.9987869,-0.0044 15.9028525,-0.0044 15.8094426,0.0143 C15.7885246,0.0187 15.7690492,0.0267666667 15.7488525,0.0326333333 C15.7239672,0.0399666667 15.699082,0.0458333333 15.674918,0.0561 C15.6511148,0.066 15.6298361,0.0799333333 15.6074754,0.0920333333 C15.5883607,0.102666667 15.5688852,0.1111 15.5508525,0.123566667 C15.5111803,0.150333333 15.4740328,0.181133333 15.4404918,0.215233333 L11.1129836,4.61486667 C10.8313115,4.90123333 10.8313115,5.36543333 11.1129836,5.6518 C11.2536393,5.79516667 11.4382951,5.86666667 11.6229508,5.86666667 C11.8076066,5.86666667 11.9922623,5.79516667 12.132918,5.6518 L15.2295082,2.5036 L15.2295082,14.6666667 C15.2295082,15.0714667 15.5526557,15.4 15.9508197,15.4 C16.3489836,15.4 16.6721311,15.0714667 16.6721311,14.6666667 L16.6721311,2.5036 L19.7687213,5.6518 C19.909377,5.79516667 20.0940328,5.86666667 20.2786885,5.86666667 C20.4633443,5.86666667 20.648,5.79516667 20.7886557,5.6518 C21.0703279,5.36543333 21.0703279,4.90123333 20.7886557,4.61486667" id="Fill-237"></path>
                    </g>
                </g>
            </g>
        </g>
    </g>
</svg>