<?xml version="1.0" encoding="UTF-8" standalone="no"?>
<svg width="32px" height="32px" viewBox="0 0 32 32" version="1.1" xmlns="http://www.w3.org/2000/svg" xmlns:xlink="http://www.w3.org/1999/xlink" xmlns:sketch="http://www.bohemiancoding.com/sketch/ns">
    <!-- Generator: Sketch 3.3.2 (12043) - http://www.bohemiancoding.com/sketch -->
    <title>specifications@3x</title>
    <desc>Created with Sketch.</desc>
    <defs></defs>
    <g id="Guest-Account" stroke="none" stroke-width="1" fill="none" fill-rule="evenodd" sketch:type="MSPage">
        <g id="Guest-Account---About" sketch:type="MSArtboardGroup" transform="translate(-370.000000, -275.000000)">
            <g id="Tabs" sketch:type="MSLayerGroup" transform="translate(0.000000, 255.000000)">
                <g id="specifications" transform="translate(371.000000, 21.000000)" sketch:type="MSShapeGroup">
                    <path d="M0,0 L30,0 L30,30 L0,30 L0,0 Z" id="Fill-245" fill="#FFFFFF"></path>
                    <path d="M0,0 L30,0 L30,30 L0,30 L0,0 Z" id="Stroke-246" stroke="#4198C5" stroke-linecap="round" stroke-linejoin="round"></path>
                    <path d="M7.20465517,5.17241379 L7.83258621,6.44482759 L9.23689655,6.64862069 L8.22103448,7.63913793 L8.46051724,9.03775862 L7.20465517,8.37775862 L5.9487931,9.03775862 L6.18827586,7.63913793 L5.17241379,6.64862069 L6.57672414,6.44482759 L7.20465517,5.17241379" id="Fill-247" fill="#4198C5"></path>
                    <path d="M7.20465517,12.9739655 L7.83258621,14.2463793 L9.23689655,14.4501724 L8.22103448,15.4406897 L8.46051724,16.8393103 L7.20465517,16.1793103 L5.9487931,16.8393103 L6.18827586,15.4406897 L5.17241379,14.4501724 L6.57672414,14.2463793 L7.20465517,12.9739655" id="Fill-248" fill="#4198C5"></path>
                    <path d="M7.20465517,20.9617241 L7.83258621,22.2346552 L9.23689655,22.4384483 L8.22103448,23.4289655 L8.46051724,24.8275862 L7.20465517,24.167069 L5.9487931,24.8275862 L6.18827586,23.4289655 L5.17241379,22.4384483 L6.57672414,22.2346552 L7.20465517,20.9617241" id="Fill-249" fill="#4198C5"></path>
                    <path d="M11.6012069,7.75862069 L23.7931034,7.75862069 M11.6012069,15.5172414 L23.7931034,15.5172414 M11.6012069,23.2758621 L23.7931034,23.2758621" id="Stroke-474" stroke="#4198C5" stroke-linecap="round" stroke-linejoin="round"></path>
                </g>
            </g>
        </g>
    </g>
</svg>