<?xml version="1.0" encoding="UTF-8" standalone="no"?>
<svg width="18px" height="18px" viewBox="0 0 18 18" version="1.1" xmlns="http://www.w3.org/2000/svg" xmlns:xlink="http://www.w3.org/1999/xlink" xmlns:sketch="http://www.bohemiancoding.com/sketch/ns">
    <!-- Generator: Sketch 3.3.2 (12043) - http://www.bohemiancoding.com/sketch -->
    <title>subscribe-blue@3x</title>
    <desc>Created with Sketch.</desc>
    <defs></defs>
    <g id="Anonymous" stroke="none" stroke-width="1" fill="none" fill-rule="evenodd" sketch:type="MSPage">
        <g id="Anonymous-Subscribe-Completed" sketch:type="MSArtboardGroup" transform="translate(-1131.000000, -43.000000)" fill="#4198C5">
            <g id="HEADER" sketch:type="MSLayerGroup">
                <g id="Group" transform="translate(50.000000, 24.000000)" sketch:type="MSShapeGroup">
                    <g id="subscribe-blue" transform="translate(1081.000000, 19.000000)">
                        <path d="M1.01605727,16.1105103 L0.865126005,16.7452505 L0.858431473,16.8067162 L0.857214286,16.8182791 C0.857518583,16.8529677 0.865126005,16.8867434 0.876689287,16.9189977 L0.886122491,16.940602 C0.901033039,16.9734648 0.91959515,17.004502 0.945764683,17.0306706 C0.974672889,17.0595777 1.00875414,17.0817906 1.04557407,17.0970049 C1.08239399,17.1122192 1.12164829,17.1198263 1.16090259,17.1198263 L1.23149947,17.1116106 L1.86595851,16.9603805 L1.01605727,16.1105103" id="Fill-1157"></path>
                        <path d="M16.8684042,1.10861166 C15.8006264,0.0411770654 14.0633954,0.0411770654 12.9953133,1.10861166 L2.02145422,12.0817663 L2.00867375,12.0988063 L1.99132883,12.121932 L1.95329172,12.194352 L1.94446711,12.2174777 L1.94081554,12.2266063 L1.18159478,15.4155215 L2.56097262,16.7948491 L5.75000413,16.035656 L5.77373929,16.0265274 L5.80356038,16.0149646 L5.86502835,15.9775374 L5.88663343,15.961106 L5.89484945,15.9550203 L16.8684042,4.98156136 C17.936182,3.91351819 17.936182,2.17635054 16.8684042,1.10861166 L16.8684042,1.10861166 Z M6.07803618,14.91132 L6.18545299,13.9427782 L12.9953133,7.13316627 C13.1139891,7.01419052 13.1139891,6.8215776 12.9953133,6.70290614 C12.8763332,6.58393039 12.6837133,6.58393039 12.5650375,6.70290614 L5.75517717,13.5125181 L4.30276807,13.6737896 L4.46404543,12.2214335 L11.2739057,5.41212577 C11.3928858,5.29315002 11.3928858,5.10053711 11.2739057,4.98156136 C11.1552299,4.86288989 10.96261,4.86288989 10.8436299,4.98156136 L4.03376962,11.7911733 L3.06519259,11.8988905 L11.4890436,3.47534663 L14.5015829,6.48777608 L6.07803618,14.91132 L6.07803618,14.91132 Z M14.9321631,6.05751595 L11.9193195,3.04508651 L12.3495953,2.61482638 L15.3624389,5.62725583 L14.9321631,6.05751595 L14.9321631,6.05751595 Z M15.7927147,5.1969957 L12.7798711,2.18426197 L13.2104512,1.75400185 L16.2229905,4.76643129 L15.7927147,5.1969957 L15.7927147,5.1969957 Z" id="Fill-1158"></path>
                    </g>
                </g>
            </g>
        </g>
    </g>
</svg>