<?xml version="1.0" encoding="UTF-8" standalone="no"?>
<svg width="63px" height="63px" viewBox="0 0 63 63" version="1.1" xmlns="http://www.w3.org/2000/svg" xmlns:xlink="http://www.w3.org/1999/xlink" xmlns:sketch="http://www.bohemiancoding.com/sketch/ns">
    <!-- Generator: Sketch 3.3.2 (12043) - http://www.bohemiancoding.com/sketch -->
    <title>transparency</title>
    <desc>Created with Sketch.</desc>
    <defs></defs>
    <g id="Anonymous" stroke="none" stroke-width="1" fill="none" fill-rule="evenodd" sketch:type="MSPage">
        <g id="Contact" sketch:type="MSArtboardGroup" transform="translate(-122.000000, -1277.000000)">
            <g id="3-column" sketch:type="MSLayerGroup" transform="translate(0.000000, 1167.000000)">
                <g id="Premise" transform="translate(81.000000, 71.000000)" sketch:type="MSShapeGroup">
                    <g id="transparency" transform="translate(42.000000, 40.000000)">
                        <path d="M57.8448276,0 L3.15517241,0 C1.41982759,0 0,1.42105263 0,3.15789474 C0,4.89473684 1.41982759,6.31578947 3.15517241,6.31578947 L3.15517241,3.15789474 L57.8448276,3.15789474 L57.8448276,6.31578947 C59.5801724,6.31578947 61,4.89473684 61,3.15789474 C61,1.42105263 59.5801724,0 57.8448276,0 L57.8448276,0 Z" id="Fill-280" fill="#DAEBF4"></path>
                        <path d="M57.8448276,0 L3.15517241,0 C1.41982759,0 0,1.42105263 0,3.15789474 C0,4.89473684 1.41982759,6.31578947 3.15517241,6.31578947 L3.15517241,3.15789474 L57.8448276,3.15789474 L57.8448276,6.31578947 C59.5801724,6.31578947 61,4.89473684 61,3.15789474 C61,1.42105263 59.5801724,0 57.8448276,0 L57.8448276,0 Z" id="Stroke-281" stroke="#4198C5" stroke-width="2" stroke-linecap="round"></path>
                        <path d="M5.25862069,53.6842105 L11.5689655,60 L17.8793103,53.6842105 L24.1896552,60 L30.5,53.6842105 L36.8103448,60 L43.1206897,53.6842105 L49.4310345,60 L55.7413793,53.6842105 L57.8448276,55.7894737 L57.8448276,3.15789474 L3.15517241,3.15789474 L3.15517241,55.7894737 L5.25862069,53.6842105 L5.25862069,53.6842105 Z" id="Fill-282" fill="#FFFFFF"></path>
                        <path d="M5.25862069,53.6842105 L11.5689655,60 L17.8793103,53.6842105 L24.1896552,60 L30.5,53.6842105 L36.8103448,60 L43.1206897,53.6842105 L49.4310345,60 L55.7413793,53.6842105 L57.8448276,55.7894737 L57.8448276,3.15789474 L3.15517241,3.15789474 L3.15517241,55.7894737 L5.25862069,53.6842105 L5.25862069,53.6842105 Z" id="Stroke-283" stroke="#4198C5" stroke-width="2" stroke-linecap="round"></path>
                        <path d="M29.4482759,42.1052632 L45.2241379,42.1052632 M34.7068966,27.3684211 L50.4827586,27.3684211 M39.9655172,34.7368421 L50.4827586,34.7368421 M29.4482759,34.7368421 L31.5517241,34.7368421 M29.4482759,20 L45.2241379,20 M11.5689655,32.8652632 C11.5689655,35.1905263 13.4526034,37.0757895 15.7758621,37.0757895 C17.0642241,37.0757895 18.2169138,36.4957895 18.9888793,35.5831579 C19.9680345,34.4242105 19.7229828,32.6631579 18.5261207,31.7315789 L13.0256034,27.4494737 C11.8287414,26.5178947 11.5836897,24.7568421 12.5628448,23.5978947 C13.3348103,22.6852632 14.4875,22.1052632 15.7758621,22.1052632 C18.0991207,22.1052632 19.9827586,23.9905263 19.9827586,26.3157895 M15.7758621,20 L15.7758621,38.9473684" id="Stroke-284" stroke="#4198C5" stroke-width="2" stroke-linecap="round"></path>
                        <path d="M7.36206897,10.5263158 L55.7413793,10.5263158" id="Stroke-285" stroke="#4198C5" stroke-width="2" stroke-linecap="round" stroke-dasharray="0,4"></path>
                        <path id="Stroke-286" stroke="#4198C5" stroke-width="2" stroke-linecap="round"></path>
                    </g>
                </g>
            </g>
        </g>
    </g>
</svg>