<?xml version="1.0" encoding="UTF-8" standalone="no"?>
<svg width="42px" height="43px" viewBox="0 0 42 43" version="1.1" xmlns="http://www.w3.org/2000/svg" xmlns:xlink="http://www.w3.org/1999/xlink" xmlns:sketch="http://www.bohemiancoding.com/sketch/ns">
    <!-- Generator: Sketch 3.3.2 (12043) - http://www.bohemiancoding.com/sketch -->
    <title>twitter</title>
    <desc>Created with Sketch.</desc>
    <defs></defs>
    <g id="Anonymous" stroke="none" stroke-width="1" fill="none" fill-rule="evenodd" sketch:type="MSPage">
        <g id="Landing" sketch:type="MSArtboardGroup" transform="translate(-1115.000000, -4237.000000)">
            <g id="FOOTER" sketch:type="MSLayerGroup" transform="translate(1.000000, 4198.000000)">
                <g id="social" transform="translate(1114.000000, 39.000000)" sketch:type="MSShapeGroup">
                    <g id="twitter" transform="translate(0.000000, 0.500000)">
                        <ellipse id="Oval-13" fill="#5EA9DD" cx="21" cy="21" rx="21" ry="21"></ellipse>
                        <path d="M32,14.1667037 C31.1908125,14.534037 30.321125,14.7824444 29.408125,14.8936296 C30.3396875,14.3222222 31.055375,13.4165556 31.39225,12.3384815 C30.5205,12.8676667 29.553875,13.2518889 28.5260625,13.4587778 C27.703125,12.5615556 26.53025,12 25.2315625,12 C22.7386875,12 20.718125,14.0688889 20.718125,16.6198148 C20.718125,16.9822222 20.7573125,17.3347778 20.835,17.6732593 C17.0833125,17.4797407 13.757875,15.640963 11.53175,12.8458519 C11.1433125,13.5284444 10.9205625,14.3222222 10.9205625,15.1687778 C10.9205625,16.7711111 11.717375,18.1855556 12.9280625,19.0138148 C12.1883125,18.9898889 11.4925625,18.7822963 10.884125,18.4360741 C10.8834375,18.4550741 10.8834375,18.4747778 10.8834375,18.4937778 C10.8834375,20.7322593 12.43925,22.5998889 14.5045,23.0242222 C14.1256875,23.1297778 13.7269375,23.1860741 13.315125,23.1860741 C13.0243125,23.1860741 12.74175,23.1572222 12.4660625,23.1037407 C13.040125,24.9382963 14.7073125,26.2746296 16.6825,26.3119259 C15.1376875,27.5504444 13.191375,28.2893333 11.076625,28.2893333 C10.71225,28.2893333 10.353375,28.2675185 10,28.2245926 C11.9971875,29.5355926 14.36975,30.3005185 16.919,30.3005185 C25.22125,30.3005185 29.7608125,23.2606667 29.7608125,17.1553333 C29.7608125,16.9554815 29.7566875,16.7563333 29.74775,16.5578889 C30.6298125,15.9062593 31.395,15.0927778 32,14.1667037" id="Imported-Layers" fill="#F6F7FB"></path>
                    </g>
                </g>
            </g>
        </g>
    </g>
</svg>