<?xml version="1.0" encoding="UTF-8" standalone="no"?>
<svg width="17px" height="22px" viewBox="0 0 17 22" version="1.1" xmlns="http://www.w3.org/2000/svg" xmlns:xlink="http://www.w3.org/1999/xlink" xmlns:sketch="http://www.bohemiancoding.com/sketch/ns">
    <!-- Generator: Sketch 3.3.2 (12043) - http://www.bohemiancoding.com/sketch -->
    <title>user-field</title>
    <desc>Created with Sketch.</desc>
    <defs></defs>
    <g id="Anonymous" stroke="none" stroke-width="1" fill="none" fill-rule="evenodd" sketch:type="MSPage">
        <g id="Contact" sketch:type="MSArtboardGroup" transform="translate(-808.000000, -440.000000)" fill="#CAD3E6">
            <g id="Form" sketch:type="MSLayerGroup" transform="translate(706.000000, 229.000000)">
                <g id="text-field" transform="translate(82.000000, 184.000000)" sketch:type="MSShapeGroup">
                    <g id="user-field" transform="translate(20.000000, 27.000000)">
                        <path d="M11.6268913,13.9744 C11.293913,13.8094 11.0869565,13.4772 11.0869565,13.1076 L11.0869565,11.8679 C11.171587,11.7652333 11.2606522,11.6486333 11.3526739,11.5192 C11.8109348,10.8775333 12.1775435,10.1632667 12.4443696,9.3929 C12.9658261,9.15566667 13.3043478,8.64416667 13.3043478,8.06666667 L13.3043478,6.6 C13.3043478,6.2469 13.1713043,5.9048 12.9347826,5.6375 L12.9347826,3.6872 C12.9554783,3.48553333 13.0367826,2.2847 12.1616522,1.29433333 C11.4025652,0.435233333 10.1708043,0 8.5,0 C6.82919565,0 5.59743478,0.435233333 4.83834783,1.29433333 C3.96321739,2.2847 4.04452174,3.48553333 4.06521739,3.6872 L4.06521739,5.6375 C3.82869565,5.9048 3.69565217,6.2469 3.69565217,6.6 L3.69565217,8.06666667 C3.69565217,8.5129 3.90002174,8.92906667 4.2488913,9.20663333 C4.58741304,10.5365333 5.29623913,11.539 5.54347826,11.8605667 L5.54347826,13.0735 C5.54347826,13.4284333 5.34834783,13.7544 5.03458696,13.9245333 L1.73732609,15.7087333 C0.665586957,16.2888 0,17.4012667 0,18.6127333 L0,19.8 C0,21.5402 5.5601087,22 8.5,22 C11.4398913,22 17,21.5402 17,19.8 L17,18.6842333 C17,17.4236333 16.2937609,16.2899 15.1573478,15.7259667 L11.6268913,13.9744 Z" id="Fill-83"></path>
                    </g>
                </g>
            </g>
        </g>
    </g>
</svg>